#N canvas 507 387 776 528 12;
#X obj 25 -63 r \$1-soundfile;
#X text 125 -63 -> n sound/file/path.ext;
#X obj 49 -39 r \$1-play;
#X text 114 -39 -> n play(1)/stop(0);
#X obj 75 -13 r \$1-loop;
#X text 140 -13 -> n loop on (0)/loop off1;
#X obj 101 12 r \$1-fade;
#X text 167 13 -> n fade;
#X obj 26 145 clone player \$2;
#X obj 127 40 r \$1-gain;
#X text 193 40 -> n gain;
#X obj 134 387 loadbang;
#X symbolatom 31 303 11 0 0 0 - - - 0;
#X obj 134 416 symbol \$1;
#X text 28 282 ABC-PLAYER~;
#X obj 32 342 vu 19 120 empty L -1 -10 0 12 #404040 #000000 0 0;
#X obj 201 192 metro 100;
#X obj 27 221 snapshot~, f 16;
#X obj 201 152 tgl 19 0 empty empty empty 0 -10 0 12 #fcfcfc #000000 #000000 0 1;
#X obj 26 247 expr 20*log10($f1);
#X obj 160 222 snapshot~, f 16;
#X obj 159 248 expr 20*log10($f1);
#X obj 56 342 vu 19 120 empty R -1 -10 0 12 #404040 #000000 1 0;
#X msg 133 446 scale 0;
#X obj 26 171 s~ \$1-player-o1;
#X obj 38 195 s~ \$1-player-o2;
#X obj 371 404 print;
#X obj 31 470 bng 19 250 50 0 empty empty empty 0 -10 0 12 #ffffff #000000 #000000;
#X text 54 471 HELP!;
#X msg 371 366 [abc-player~] I still have to write the help!;
#X msg 207 418 1;
#X obj 407 60 print soundfile;
#X obj 200 116 loadbang;
#X obj 409 93 print gain;
#X obj 408 151 print play;
#X connect 0 0 31 0;
#X connect 0 0 8 0;
#X connect 2 0 8 1;
#X connect 2 0 33 0;
#X connect 4 0 8 2;
#X connect 6 0 8 3;
#X connect 8 0 17 0;
#X connect 8 0 24 0;
#X connect 8 1 20 0;
#X connect 8 1 25 0;
#X connect 9 0 8 4;
#X connect 9 0 34 0;
#X connect 11 0 13 0;
#X connect 11 0 30 0;
#X connect 13 0 12 0;
#X connect 13 0 23 0;
#X connect 16 0 20 0;
#X connect 16 0 17 0;
#X connect 17 0 19 0;
#X connect 18 0 16 0;
#X connect 19 0 15 0;
#X connect 20 0 21 0;
#X connect 21 0 22 0;
#X connect 23 0 15 0;
#X connect 29 0 26 0;
#X connect 32 0 18 0;
#X coords 0 -1 1 1 100 220 2 20 275;
