#N canvas 617 402 1764 983 12;
#X declare -path ./data -path ./DSP -path ./utility -path ./sounds;
#X obj 513 48 s cue-forward;
#X obj 513 24 bng 19 250 50 0 empty empty empty 0 -10 0 12 #fcfcfc #000000 #000000;
#X obj 611 48 s cue-init;
#X obj 611 25 bng 19 250 50 0 empty empty empty 0 -10 0 12 #fcfcfc #000000 #000000;
#X obj 584 636 r~ p01-player-o2;
#X obj 278 639 r~ p01-player-o1;
#X obj 688 48 s cue-file;
#X msg 688 24 cue.txt;
#X obj 9 7 le.cue;
#X obj 8 79 le.player~ p01 8;
#X obj 774 35 declare -path ./data -path ./DSP -path ./utility -path ./sounds, f 37;
#X obj 1261 15 u.xtouch 1;
#X obj 1260 325 u.xtouch 17;
#X obj 176 123 u.output;
#X obj 269 687 le.spAAce~ 1;
#X obj 584 687 le.spAAce~ 2;
#X connect 1 0 0 0;
#X connect 3 0 2 0;
#X connect 4 0 15 0;
#X connect 5 0 14 0;
#X connect 7 0 6 0;
