#N canvas 631 53 1302 660 12;
#X obj 9 7 abc-cue;
#X obj 513 48 s cue-forward;
#X obj 513 24 bng 19 250 50 0 empty empty empty 0 -10 0 12 #fcfcfc #000000 #000000;
#X obj 611 48 s cue-init;
#X obj 611 25 bng 19 250 50 0 empty empty empty 0 -10 0 12 #fcfcfc #000000 #000000;
#X obj 8 79 abc-player~ p01 8;
#X obj 33 326 r~ p01-player-o2;
#X obj 8 303 r~ p01-player-o1;
#X obj 8 353 dac~;
#X obj 688 48 s cue-file;
#X msg 688 24 cue.txt;
#X connect 2 0 1 0;
#X connect 4 0 3 0;
#X connect 6 0 8 1;
#X connect 7 0 8 0;
#X connect 10 0 9 0;
