#N canvas 177 797 1022 631 12;
#X declare -path ../utility;
#N canvas 32 32 450 250 (subpatch) 0;
#X array \$1_Run 13 float 2;
#X coords 0 12 13 0 200 140 1 0 0;
#X restore 590 135 graph;
#X text 313 60 number of speakers on this path, f 18;
#X obj 131 512 array get \$1_Run;
#X obj 133 319 t b f;
#X obj 131 578 outlet;
#X floatatom 182 319 5 0 0 0 - - - 0;
#X obj 133 94 r \$1_Rtime_ms;
#X obj 267 511 array get \$1_Run;
#X obj 267 463 spigot;
#X obj 267 487 t b f;
#X obj 397 509 array get \$1_Run;
#X obj 397 461 spigot;
#X obj 397 485 t b f;
#X obj 454 369 r \$1_stacca_lega;
#X text 133 56 durata permanenza in un canale, f 18;
#X text 452 333 staccato (0) legato(1), f 13;
#X obj 269 353 mod;
#X obj 399 351 mod;
#X msg 131 536 \$1 1;
#X msg 267 535 \$1 0;
#X msg 397 533 \$1 0;
#X obj 269 329 - 1;
#X obj 399 327 - 2;
#X obj 269 377 sel 0;
#X msg 269 401 1;
#X msg 330 378 set \$1;
#X obj 399 381 sel 0;
#X msg 399 405 1;
#X obj 454 393 t f b;
#X msg 538 506 1 0 \, 2 0 \, 3 0 \, 4 0 \, 5 0 \, 6 0 \, 7 0 \, 8 0 \, 9 0 \, 10 0 \, 11 0 \, 12 0, f 25;
#X text 14 24 Based on spAAce - © Alvise Vidolin - April 15th 2009;
#X obj 27 578 s \$1_line;
#X text 22 508 to visualization, f 13;
#X obj 28 549 - 1;
#X obj 607 36 declare -path ../utility;
#X obj 133 263 u.metro~;
#X obj 133 295 u.counter 1 10;
#X msg 394 133 0;
#X obj 133 118 t f b;
#X obj 395 233 array get \$1_Run;
#X text 14 9 Mattia Pizzato - April 7th 2025;
#X obj 394 164 t b f b;
#X msg 439 196 1;
#X obj 454 427 u.!- 1;
#X obj 68 361 bng 19 250 50 0 empty empty empty 0 -10 0 12 #fcfcfc #000000 #000000;
#X obj 308 240 sel 1;
#X obj 269 296 spigot;
#X msg 308 264 0;
#X msg 346 266 1;
#X floatatom 81 481 5 0 0 0 - - - 0;
#X connect 2 0 18 0;
#X connect 2 0 49 0;
#X connect 3 0 2 0;
#X connect 3 1 2 0;
#X connect 6 0 38 0;
#X connect 7 0 19 0;
#X connect 8 0 9 0;
#X connect 9 0 7 0;
#X connect 9 1 7 0;
#X connect 10 0 20 0;
#X connect 11 0 12 0;
#X connect 12 0 10 0;
#X connect 12 1 10 0;
#X connect 13 0 28 0;
#X connect 16 0 23 0;
#X connect 17 0 26 0;
#X connect 18 0 4 0;
#X connect 18 0 33 0;
#X connect 19 0 4 0;
#X connect 20 0 4 0;
#X connect 21 0 16 0;
#X connect 22 0 17 0;
#X connect 23 0 24 0;
#X connect 23 1 8 0;
#X connect 24 0 8 0;
#X connect 25 0 24 0;
#X connect 25 0 27 0;
#X connect 26 0 27 0;
#X connect 26 1 11 0;
#X connect 27 0 11 0;
#X connect 28 0 11 1;
#X connect 28 0 43 0;
#X connect 28 1 29 0;
#X connect 29 0 4 0;
#X connect 33 0 31 0;
#X connect 35 0 36 0;
#X connect 36 0 3 0;
#X connect 36 0 5 0;
#X connect 36 0 44 0;
#X connect 36 0 46 0;
#X connect 37 0 41 0;
#X connect 38 0 35 0;
#X connect 38 1 37 0;
#X connect 39 0 17 1;
#X connect 39 0 25 0;
#X connect 39 0 16 1;
#X connect 39 0 36 2;
#X connect 39 0 45 0;
#X connect 41 0 39 0;
#X connect 41 1 39 0;
#X connect 41 2 42 0;
#X connect 42 0 39 1;
#X connect 43 0 8 1;
#X connect 45 0 47 0;
#X connect 45 0 29 0;
#X connect 45 1 48 0;
#X connect 46 0 21 0;
#X connect 46 0 22 0;
#X connect 47 0 46 1;
#X connect 48 0 46 1;
