#N canvas 209 193 586 649 12;
#X obj 34 194 readsf~ 2, f 16;
#X obj 45 155 tgl 19 0 empty empty empty 0 -10 0 12 #fcfcfc #000000 #000000 0 1;
#X msg 143 220 1;
#X obj 182 221 tgl 19 0 empty empty empty 0 -10 0 12 #fcfcfc #000000 #000000 0 1;
#X obj 143 246 ==, f 6;
#X obj 143 275 t f b, f 6;
#X obj 144 307 line~;
#X obj 34 337 *~;
#X obj 88 337 *~;
#X obj 34 420 *~;
#X obj 88 420 *~;
#X obj 139 387 line~;
#X msg 139 361 \$1 10;
#X floatatom 139 336 5 0 0 0 - - - 0;
#X obj 34 445 outlet~;
#X obj 89 445 outlet~;
#X obj 33 91 pack s;
#X msg 33 122 open \$1;
#X obj 33 60 inlet;
#X obj 108 92 inlet;
#X obj 183 117 inlet;
#X text 68 156 play;
#X text 202 221 loop;
#X obj 183 191 *, f 5;
#X obj 183 145 t b f;
#X obj 337 61 inlet;
#X text 76 58 > file audio path;
#X text 148 91 > play (1) / stop (0);
#X text 227 116 > loop on (1) / loop off (0);
#X text 379 62 > fade;
#X obj 437 61 inlet;
#X text 479 62 > gain [0-1];
#X text 188 333 gain;
#X connect 0 0 7 0;
#X connect 0 1 8 0;
#X connect 0 2 2 0;
#X connect 1 0 0 0;
#X connect 2 0 4 0;
#X connect 3 0 4 1;
#X connect 4 0 5 0;
#X connect 5 0 1 0;
#X connect 5 1 16 0;
#X connect 6 0 8 1;
#X connect 6 0 7 1;
#X connect 7 0 9 0;
#X connect 8 0 10 0;
#X connect 9 0 14 0;
#X connect 10 0 15 0;
#X connect 11 0 10 1;
#X connect 11 0 9 1;
#X connect 12 0 11 0;
#X connect 13 0 12 0;
#X connect 16 0 17 0;
#X connect 17 0 0 0;
#X connect 18 0 16 0;
#X connect 19 0 1 0;
#X connect 19 0 23 0;
#X connect 20 0 24 0;
#X connect 23 0 3 0;
#X connect 24 0 23 0;
#X connect 24 1 23 1;
#X connect 25 0 6 0;
#X connect 30 0 13 0;
