#N canvas 948 376 876 655 12;
#X obj 148 230 delwrite~ \$0-delay 10000;
#X obj 148 153 inlet~;
#X obj 259 282 r \$1-delay;
#X obj 259 306 list prepend set;
#X obj 259 330 list trim;
#X floatatom 505 138 6 0 0 0 - - - 0;
#X obj 77 566 outlet~;
#X obj 97 524 *~ 0;
#X obj 342 282 inlet;
#X text 144 131 signal in;
#X text 340 255 delay in;
#X obj 412 309 list prepend set;
#X obj 412 333 list trim;
#X obj 491 283 inlet;
#X text 481 261 feedback in;
#X floatatom 505 168 6 0 1 0 - - - 0;
#X obj 122 492 clip 0 1;
#X obj 221 373 pack f 40;
#X obj 221 397 line~;
#X obj 77 437 delread4~ \$0-delay;
#X obj 148 177 +~;
#X obj 26 15 cnv 19 126 25 empty empty le.delay~ 0 12 0 20 #e0e0e0 #404040 0;
#X text 25 40 Simple delay line with feedback;
#X obj 412 283 r \$1-delfb;
#X text 25 61 ARGOUMENTS:;
#X text 108 60 \$1-delay: delay time;
#X text 108 78 \$1-delfb: delay time;
#X text 551 137 time (ms);
#X text 551 165 feedback;
#X connect 1 0 20 0;
#X connect 2 0 3 0;
#X connect 2 0 17 0;
#X connect 3 0 4 0;
#X connect 4 0 5 0;
#X connect 5 0 17 0;
#X connect 7 0 20 1;
#X connect 8 0 3 0;
#X connect 8 0 17 0;
#X connect 11 0 12 0;
#X connect 12 0 15 0;
#X connect 13 0 16 0;
#X connect 13 0 11 0;
#X connect 15 0 16 0;
#X connect 16 0 7 1;
#X connect 17 0 18 0;
#X connect 18 0 19 0;
#X connect 19 0 6 0;
#X connect 19 0 7 0;
#X connect 20 0 0 0;
#X connect 23 0 16 0;
#X connect 23 0 11 0;
#X coords 0 -1 1 1 130 90 1 500 100;
