#N canvas 4 64 2560 1486 12;
#X obj 85 325 le.harmonizer~ \$0HD8s1;
#X obj 303 325 le.harmonizer~ \$0HD8s2;
#X obj 522 325 le.harmonizer~ \$0HD8s3;
#X obj 741 325 le.harmonizer~ \$0HD8s4;
#X obj 962 325 le.harmonizer~ \$0HD8s5;
#X obj 1179 325 le.harmonizer~ \$0HD8s6;
#X obj 1399 325 le.harmonizer~ \$0HD8s7;
#X obj 1617 325 le.harmonizer~ \$0HD8s8;
#X obj 85 404 le.delay~ \$0HD8s1;
#X obj 303 404 le.delay~ \$0HD8s2;
#X obj 522 404 le.delay~ \$0HD8s3;
#X obj 741 404 le.delay~ \$0HD8s4;
#X obj 962 404 le.delay~ \$0HD8s5;
#X obj 1179 404 le.delay~ \$0HD8s6;
#X obj 1399 404 le.delay~ \$0HD8s7;
#X obj 1617 404 le.delay~ \$0HD8s8;
#X obj 68 26 cnv 19 120 30 empty empty le.HD8s~ 0 12 0 25 #e0e0e0 #404040 0;
#X obj 84 559 snake~ in 8, f 220;
#X text 67 61 8 harmonizer + delay modules;
#X obj 85 158 snake~ out 8, f 220;
#X obj 84 641 *~;
#X obj 119 641 line~;
#X msg 118 617 \$1 10;
#X obj 118 593 r \$1-HD8s-gain;
#N canvas 807 1452 450 283 env 0;
#X obj 9 30 env~ 1024;
#X obj 10 78 outlet;
#X obj 10 6 inlet~;
#X obj 66 80 outlet~;
#X obj 10 54 - 100;
#X connect 0 0 4 0;
#X connect 2 0 0 0;
#X connect 2 0 3 0;
#X connect 4 0 1 0;
#X restore 1077 628 pd env;
#X f 3;
#X obj 1076 605 /~ 8;
#X obj 1077 666 s \$0-env;
#X obj 85 129 catch~ \$1-HD8s-in 8;
#X obj 84 672 throw~ \$1-HD8s-out 8;
#X obj 103 823 cnv 19 200 250 empty empty empty 20 12 0 12 #feffc6 #404040 0;
#X obj 303 826 cnv 19 145 250 empty empty empty 20 12 0 12 #ffe3c6 #404040 0;
#X obj 1632 946 metro 1000;
#X floatatom 1631 1101 5 0 0 0 - - - 0;
#X obj 1632 910 tgl 19 0 empty empty empty 0 -10 0 12 #fcfcfc #000000 #000000 0 1;
#X obj 1631 1124 send \$0HD8s3-harmo;
#X floatatom 1775 1101 5 0 0 0 - - - 0;
#X obj 1775 1124 send \$0HD8s4-harmo;
#X floatatom 1341 1101 5 0 0 0 - - - 0;
#X floatatom 1485 1100 5 0 0 0 - - - 0;
#X obj 1341 1124 send \$0HD8s1-harmo;
#X obj 1485 1123 send \$0HD8s2-harmo;
#X obj 2212 998 random 100;
#X obj 2212 1022 - 50;
#X floatatom 2211 1101 5 0 0 0 - - - 0;
#X obj 2356 998 random 100;
#X obj 2356 1022 - 50;
#X floatatom 2355 1101 5 0 0 0 - - - 0;
#X obj 1922 998 random 100;
#X obj 1922 1022 - 50;
#X floatatom 1921 1101 5 0 0 0 - - - 0;
#X obj 2066 998 random 100;
#X obj 2066 1022 - 50;
#X floatatom 2065 1101 5 0 0 0 - - - 0;
#X obj 1921 1124 send \$0HD8s5-harmo;
#X obj 2065 1124 send \$0HD8s6-harmo;
#X obj 2211 1124 send \$0HD8s7-harmo;
#X obj 2355 1124 send \$0HD8s8-harmo;
#X obj 1635 1180 metro 1000;
#X msg 1635 1309 \$1 1000;
#X floatatom 1635 1357 5 0 0 0 - - - 0;
#X obj 1635 1155 tgl 19 0 empty empty empty 0 -10 0 12 #fcfcfc #000000 #000000 0 1;
#X msg 1779 1307 \$1 1000;
#X floatatom 1779 1355 5 0 0 0 - - - 0;
#X msg 1345 1314 \$1 1000;
#X floatatom 1345 1362 5 0 0 0 - - - 0;
#X msg 1489 1312 \$1 1000;
#X floatatom 1489 1360 5 0 0 0 - - - 0;
#X msg 2215 1301 \$1 1000;
#X floatatom 2215 1349 5 0 0 0 - - - 0;
#X msg 2359 1299 \$1 1000;
#X floatatom 2359 1347 5 0 0 0 - - - 0;
#X msg 1925 1306 \$1 1000;
#X floatatom 1925 1354 5 0 0 0 - - - 0;
#X msg 2069 1304 \$1 1000;
#X floatatom 2069 1352 5 0 0 0 - - - 0;
#X obj 1345 1388 send \$0HD8s1-delay;
#X obj 1345 1232 random 200;
#X obj 1489 1230 random 200;
#X obj 1635 1227 random 200;
#X obj 1779 1225 random 200;
#X obj 1925 1224 random 200;
#X obj 2069 1222 random 200;
#X obj 2215 1219 random 200;
#X obj 2359 1217 random 200;
#X obj 1489 1386 send \$0HD8s2-delay;
#X obj 1635 1383 send \$0HD8s3-delay;
#X obj 1779 1380 send \$0HD8s4-delay;
#X obj 1925 1380 send \$0HD8s5-delay;
#X obj 2070 1377 send \$0HD8s6-delay;
#X obj 2215 1375 send \$0HD8s7-delay;
#X obj 2359 1372 send \$0HD8s8-delay;
#X obj 1341 1077 line 0 50;
#X obj 1485 1076 line 0 50;
#X obj 1631 1077 line 0 50;
#X obj 1775 1077 line 0 50;
#X obj 1921 1077 line 0 50;
#X obj 2065 1077 line 0 50;
#X obj 2211 1077 line 0 50;
#X obj 2355 1077 line 0 50;
#X obj 1345 1338 line 0 50;
#X obj 1489 1336 line 0 50;
#X obj 1635 1333 line 0 50;
#X obj 1779 1331 line 0 50;
#X obj 1925 1330 line 0 50;
#X obj 2069 1328 line 0 50;
#X obj 2215 1325 line 0 50;
#X obj 2359 1323 line 0 50;
#X obj 1776 998 random 100;
#X obj 1632 998 random 100;
#X obj 1486 998 random 100;
#X obj 1342 998 random 100;
#X obj 1342 1022 - 50;
#X obj 1486 1022 - 50;
#X obj 1632 1022 - 50;
#X obj 1776 1022 - 50;
#X obj 1309 650 r \$0HD8s1-harmo;
#X obj 1453 650 r \$0HD8s2-harmo;
#X obj 1599 650 r \$0HD8s3-harmo;
#X obj 1743 650 r \$0HD8s4-harmo;
#X obj 1393 710 r \$0HD8s5-harmo;
#X obj 1537 710 r \$0HD8s6-harmo;
#X obj 1683 710 r \$0HD8s7-harmo;
#X obj 1827 710 r \$0HD8s8-harmo;
#X obj 1304 777 r \$0HD8s1-delay;
#X obj 1448 775 r \$0HD8s2-delay;
#X obj 1594 772 r \$0HD8s3-delay;
#X obj 1738 769 r \$0HD8s4-delay;
#X obj 1398 835 r \$0HD8s5-delay;
#X obj 1543 832 r \$0HD8s6-delay;
#X obj 1687 837 r \$0HD8s7-delay;
#X obj 1831 834 r \$0HD8s8-delay;
#X floatatom 127 856 5 0 0 0 1- - - 0;
#X floatatom 127 880 5 0 0 0 2- - - 0;
#X floatatom 127 904 5 0 0 0 3- - - 0;
#X floatatom 127 928 5 0 0 0 4- - - 0;
#X floatatom 127 952 5 0 0 0 5- - - 0;
#X floatatom 127 976 5 0 0 0 6- - - 0;
#X floatatom 127 1000 5 0 0 0 7- - - 0;
#X floatatom 127 1024 5 0 0 0 8- - - 0;
#X floatatom 195 855 5 0 0 0 - - - 0;
#X floatatom 195 879 5 0 0 0 - - - 0;
#X floatatom 195 903 5 0 0 0 - - - 0;
#X floatatom 195 927 5 0 0 0 - - - 0;
#X floatatom 195 951 5 0 0 0 - - - 0;
#X floatatom 195 975 5 0 0 0 - - - 0;
#X floatatom 195 999 5 0 0 0 - - - 0;
#X floatatom 195 1023 5 0 0 0 - - - 0;
#X text 190 832 TIME;
#X floatatom 255 856 5 0 0 0 - - - 0;
#X floatatom 255 880 5 0 0 0 - - - 0;
#X floatatom 255 904 5 0 0 0 - - - 0;
#X floatatom 255 928 5 0 0 0 - - - 0;
#X floatatom 255 952 5 0 0 0 - - - 0;
#X floatatom 255 976 5 0 0 0 - - - 0;
#X floatatom 255 1000 5 0 0 0 - - - 0;
#X floatatom 255 1024 5 0 0 0 - - - 0;
#X text 250 833 FB;
#X msg 1309 675 set \$1;
#X msg 1452 676 set \$1;
#X msg 1598 678 set \$1;
#X msg 1745 678 set \$1;
#X msg 1391 740 set \$1;
#X msg 1534 741 set \$1;
#X msg 1680 743 set \$1;
#X msg 1827 743 set \$1;
#X msg 1302 801 set \$1;
#X msg 1445 802 set \$1;
#X msg 1591 804 set \$1;
#X msg 1738 804 set \$1;
#X msg 1397 866 set \$1;
#X msg 1540 867 set \$1;
#X msg 1686 869 set \$1;
#X msg 1833 869 set \$1;
#X text 84 706 RECEIVE FROM PLAYLIST;
#X obj 90 751 unpack f f f f f f f f;
#X obj 257 748 unpack f f f f f f f f;
#X obj 426 748 unpack f f f f f f f f;
#X obj 380 1176 send \$0HD8s3-harmo;
#X obj 524 1176 send \$0HD8s4-harmo;
#X obj 90 1176 send \$0HD8s1-harmo;
#X obj 234 1176 send \$0HD8s2-harmo;
#X obj 136 1213 send \$0HD8s5-harmo;
#X obj 280 1213 send \$0HD8s6-harmo;
#X obj 426 1213 send \$0HD8s7-harmo;
#X obj 570 1213 send \$0HD8s8-harmo;
#X obj 94 1260 send \$0HD8s1-delay;
#X obj 238 1258 send \$0HD8s2-delay;
#X obj 384 1255 send \$0HD8s3-delay;
#X obj 528 1252 send \$0HD8s4-delay;
#X obj 162 1304 send \$0HD8s5-delay;
#X obj 307 1301 send \$0HD8s6-delay;
#X obj 452 1299 send \$0HD8s7-delay;
#X obj 608 1300 send \$0HD8s8-delay;
#X obj 95 1345 send \$0HD8s1-delfb;
#X obj 239 1343 send \$0HD8s2-delfb;
#X obj 385 1340 send \$0HD8s3-delfb;
#X obj 529 1337 send \$0HD8s4-delfb;
#X obj 163 1389 send \$0HD8s5-delfb;
#X obj 308 1386 send \$0HD8s6-delfb;
#X obj 453 1384 send \$0HD8s7-delfb;
#X obj 609 1385 send \$0HD8s8-delfb;
#X text 310 835 RANDOM;
#X obj 310 861 tgl 19 0 empty empty transpose 25 10 0 12 #fcfcfc #000000 #000000 0 1;
#X floatatom 311 891 5 0 0 1 max - - 0;
#X floatatom 310 917 5 0 0 1 min - - 0;
#X floatatom 127 1047 5 0 0 0 all - - 0;
#X floatatom 195 1046 5 0 0 0 - - - 0;
#X floatatom 256 1048 5 0 0 0 - - - 0;
#X obj 311 942 tgl 19 0 empty empty delay 25 10 0 12 #fcfcfc #000000 #000000 0 1;
#X floatatom 311 973 5 0 0 1 max - - 0;
#X floatatom 310 999 5 0 0 1 min - - 0;
#X obj 1345 1268 + 0;
#X obj 1489 1266 + 0;
#X obj 1635 1263 + 0;
#X obj 1779 1261 + 0;
#X obj 1925 1260 + 0;
#X obj 2069 1258 + 0;
#X obj 2215 1255 + 0;
#X obj 2359 1253 + 0;
#X obj 2021 752 loadbang;
#X msg 2021 776 100;
#X msg 2033 799 50;
#X msg 2072 778 200;
#X msg 2084 805 0;
#X obj 387 930 vu 19 120 \$0-env empty -1 -10 0 12 #404040 #000000 1 0;
#X floatatom 375 892 5 0 0 1 speed - - 0;
#X msg 2038 828 1000;
#X obj 1342 1046 pack f f;
#X obj 1486 1046 pack f f;
#X obj 1632 1046 pack f f;
#X obj 1776 1046 pack f f;
#X obj 1922 1046 pack f f;
#X obj 2066 1046 pack f f;
#X obj 2212 1046 pack f f;
#X obj 2356 1046 pack f f;
#X obj 908 1215 s \$1-FB;
#X msg 907 1176 \$1 \$1 \$1 \$1 \$1 \$1 \$1 \$1, f 12;
#X msg 800 1175 \$1 \$1 \$1 \$1 \$1 \$1 \$1 \$1, f 12;
#X obj 801 1215 s \$1-time;
#X msg 758 1242 \$1 \$1 \$1 \$1 \$1 \$1 \$1 \$1, f 12;
#X obj 759 1282 s \$1-transpose;
#X text 122 833 TRANSPOSE;
#X obj 599 747 unpack f f f f;
#X text 592 682 \$1-ramdom: on-off (1-0) min max speed;
#X obj 798 747 unpack f f f;
#X obj 90 727 r \$1-HD8s-transpose;
#X obj 257 724 r \$1-HD8s-time;
#X obj 426 724 r \$1-HD8s-FB;
#X obj 599 723 r \$1-HD8s-random-transpose;
#X obj 798 723 r \$1-HD8s-random-time;
#X connect 0 0 8 0;
#X connect 1 0 9 0;
#X connect 2 0 10 0;
#X connect 3 0 11 0;
#X connect 4 0 12 0;
#X connect 5 0 13 0;
#X connect 6 0 14 0;
#X connect 7 0 15 0;
#X connect 8 0 17 0;
#X connect 8 0 25 0;
#X connect 9 0 17 1;
#X connect 9 0 25 0;
#X connect 10 0 17 2;
#X connect 10 0 25 0;
#X connect 11 0 17 3;
#X connect 11 0 25 0;
#X connect 12 0 17 4;
#X connect 12 0 25 0;
#X connect 13 0 17 5;
#X connect 13 0 25 0;
#X connect 14 0 17 6;
#X connect 14 0 25 0;
#X connect 15 0 17 7;
#X connect 15 0 25 0;
#X connect 17 0 20 0;
#X connect 19 0 0 0;
#X connect 19 1 1 0;
#X connect 19 2 2 0;
#X connect 19 3 3 0;
#X connect 19 4 4 0;
#X connect 19 5 5 0;
#X connect 19 6 6 0;
#X connect 19 7 7 0;
#X connect 20 0 28 0;
#X connect 21 0 20 1;
#X connect 22 0 21 0;
#X connect 23 0 22 0;
#X connect 24 0 26 0;
#X connect 25 0 24 0;
#X connect 27 0 19 0;
#X connect 31 0 44 0;
#X connect 31 0 41 0;
#X connect 31 0 50 0;
#X connect 31 0 47 0;
#X connect 31 0 107 0;
#X connect 31 0 108 0;
#X connect 31 0 109 0;
#X connect 31 0 110 0;
#X connect 32 0 34 0;
#X connect 33 0 31 0;
#X connect 35 0 36 0;
#X connect 37 0 39 0;
#X connect 38 0 40 0;
#X connect 41 0 42 0;
#X connect 42 0 233 0;
#X connect 43 0 55 0;
#X connect 44 0 45 0;
#X connect 45 0 234 0;
#X connect 46 0 56 0;
#X connect 47 0 48 0;
#X connect 48 0 231 0;
#X connect 49 0 53 0;
#X connect 50 0 51 0;
#X connect 51 0 232 0;
#X connect 52 0 54 0;
#X connect 57 0 81 0;
#X connect 57 0 82 0;
#X connect 57 0 83 0;
#X connect 57 0 80 0;
#X connect 57 0 79 0;
#X connect 57 0 78 0;
#X connect 57 0 77 0;
#X connect 57 0 76 0;
#X connect 58 0 101 0;
#X connect 59 0 85 0;
#X connect 60 0 57 0;
#X connect 61 0 102 0;
#X connect 62 0 86 0;
#X connect 63 0 99 0;
#X connect 64 0 75 0;
#X connect 65 0 100 0;
#X connect 66 0 84 0;
#X connect 67 0 105 0;
#X connect 68 0 89 0;
#X connect 69 0 106 0;
#X connect 70 0 90 0;
#X connect 71 0 103 0;
#X connect 72 0 87 0;
#X connect 73 0 104 0;
#X connect 74 0 88 0;
#X connect 76 0 211 0;
#X connect 77 0 212 0;
#X connect 78 0 213 0;
#X connect 79 0 214 0;
#X connect 80 0 215 0;
#X connect 81 0 216 0;
#X connect 82 0 217 0;
#X connect 83 0 218 0;
#X connect 91 0 37 0;
#X connect 92 0 38 0;
#X connect 93 0 32 0;
#X connect 94 0 35 0;
#X connect 95 0 49 0;
#X connect 96 0 52 0;
#X connect 97 0 43 0;
#X connect 98 0 46 0;
#X connect 99 0 64 0;
#X connect 100 0 66 0;
#X connect 101 0 59 0;
#X connect 102 0 62 0;
#X connect 103 0 72 0;
#X connect 104 0 74 0;
#X connect 105 0 68 0;
#X connect 106 0 70 0;
#X connect 107 0 114 0;
#X connect 108 0 113 0;
#X connect 109 0 112 0;
#X connect 110 0 111 0;
#X connect 111 0 227 0;
#X connect 112 0 228 0;
#X connect 113 0 229 0;
#X connect 114 0 230 0;
#X connect 115 0 157 0;
#X connect 116 0 158 0;
#X connect 117 0 159 0;
#X connect 118 0 160 0;
#X connect 119 0 161 0;
#X connect 120 0 162 0;
#X connect 121 0 163 0;
#X connect 122 0 164 0;
#X connect 123 0 165 0;
#X connect 124 0 166 0;
#X connect 125 0 167 0;
#X connect 126 0 168 0;
#X connect 127 0 169 0;
#X connect 128 0 170 0;
#X connect 129 0 171 0;
#X connect 130 0 172 0;
#X connect 131 0 179 0;
#X connect 132 0 180 0;
#X connect 133 0 177 0;
#X connect 134 0 178 0;
#X connect 135 0 181 0;
#X connect 136 0 182 0;
#X connect 137 0 183 0;
#X connect 138 0 184 0;
#X connect 139 0 185 0;
#X connect 140 0 186 0;
#X connect 141 0 187 0;
#X connect 142 0 188 0;
#X connect 143 0 189 0;
#X connect 144 0 190 0;
#X connect 145 0 191 0;
#X connect 146 0 192 0;
#X connect 148 0 193 0;
#X connect 149 0 194 0;
#X connect 150 0 195 0;
#X connect 151 0 196 0;
#X connect 152 0 197 0;
#X connect 153 0 198 0;
#X connect 154 0 199 0;
#X connect 155 0 200 0;
#X connect 157 0 131 0;
#X connect 158 0 132 0;
#X connect 159 0 133 0;
#X connect 160 0 134 0;
#X connect 161 0 135 0;
#X connect 162 0 136 0;
#X connect 163 0 137 0;
#X connect 164 0 138 0;
#X connect 165 0 139 0;
#X connect 166 0 140 0;
#X connect 167 0 141 0;
#X connect 168 0 142 0;
#X connect 169 0 143 0;
#X connect 170 0 144 0;
#X connect 171 0 145 0;
#X connect 172 0 146 0;
#X connect 174 0 131 0;
#X connect 174 1 132 0;
#X connect 174 2 133 0;
#X connect 174 3 134 0;
#X connect 174 4 135 0;
#X connect 174 5 136 0;
#X connect 174 6 137 0;
#X connect 174 7 138 0;
#X connect 175 0 139 0;
#X connect 175 1 140 0;
#X connect 175 2 141 0;
#X connect 175 3 142 0;
#X connect 175 4 143 0;
#X connect 175 5 144 0;
#X connect 175 6 145 0;
#X connect 175 7 146 0;
#X connect 176 0 148 0;
#X connect 176 1 149 0;
#X connect 176 2 150 0;
#X connect 176 3 151 0;
#X connect 176 4 152 0;
#X connect 176 5 153 0;
#X connect 176 6 154 0;
#X connect 176 7 155 0;
#X connect 202 0 33 0;
#X connect 203 0 110 1;
#X connect 203 0 109 1;
#X connect 203 0 108 1;
#X connect 203 0 107 1;
#X connect 203 0 50 1;
#X connect 203 0 47 1;
#X connect 203 0 44 1;
#X connect 203 0 41 1;
#X connect 204 0 111 1;
#X connect 204 0 114 1;
#X connect 204 0 113 1;
#X connect 204 0 112 1;
#X connect 204 0 51 1;
#X connect 204 0 48 1;
#X connect 204 0 45 1;
#X connect 204 0 42 1;
#X connect 205 0 239 0;
#X connect 206 0 237 0;
#X connect 207 0 236 0;
#X connect 208 0 60 0;
#X connect 209 0 76 1;
#X connect 209 0 83 1;
#X connect 209 0 82 1;
#X connect 209 0 81 1;
#X connect 209 0 80 1;
#X connect 209 0 79 1;
#X connect 209 0 78 1;
#X connect 209 0 77 1;
#X connect 210 0 211 1;
#X connect 210 0 218 1;
#X connect 210 0 217 1;
#X connect 210 0 216 1;
#X connect 210 0 215 1;
#X connect 210 0 214 1;
#X connect 210 0 213 1;
#X connect 210 0 212 1;
#X connect 211 0 63 0;
#X connect 212 0 65 0;
#X connect 213 0 58 0;
#X connect 214 0 61 0;
#X connect 215 0 71 0;
#X connect 216 0 73 0;
#X connect 217 0 67 0;
#X connect 218 0 69 0;
#X connect 219 0 220 0;
#X connect 219 0 221 0;
#X connect 219 0 222 0;
#X connect 219 0 223 0;
#X connect 219 0 226 0;
#X connect 220 0 203 0;
#X connect 221 0 204 0;
#X connect 222 0 209 0;
#X connect 223 0 210 0;
#X connect 225 0 31 1;
#X connect 225 0 227 1;
#X connect 225 0 234 1;
#X connect 225 0 233 1;
#X connect 225 0 232 1;
#X connect 225 0 231 1;
#X connect 225 0 230 1;
#X connect 225 0 229 1;
#X connect 225 0 228 1;
#X connect 226 0 225 0;
#X connect 227 0 91 0;
#X connect 228 0 92 0;
#X connect 229 0 93 0;
#X connect 230 0 94 0;
#X connect 231 0 95 0;
#X connect 232 0 96 0;
#X connect 233 0 97 0;
#X connect 234 0 98 0;
#X connect 236 0 235 0;
#X connect 237 0 238 0;
#X connect 239 0 240 0;
#X connect 242 0 202 0;
#X connect 242 1 204 0;
#X connect 242 2 203 0;
#X connect 242 3 225 0;
#X connect 244 0 208 0;
#X connect 244 1 210 0;
#X connect 244 2 209 0;
#X connect 245 0 174 0;
#X connect 246 0 175 0;
#X connect 247 0 176 0;
#X connect 248 0 242 0;
#X connect 249 0 244 0;
#X coords 0 -1 1 1 350 275 1 100 800;
