#N canvas 64 160 800 721 12;
#X floatatom 108 129 6 0 0 0 - - - 0;
#X obj 108 523 *~;
#X obj 231 449 line~;
#X floatatom 231 204 6 0 0 0 - - - 0;
#X floatatom 108 207 6 0 0 0 - - - 0;
#X obj 108 324 /;
#X obj 156 261 * 0.001;
#X obj 294 513 line~;
#X floatatom 294 437 8 0 0 0 - - - 0;
#X obj 108 560 +~;
#X obj 52 575 cos~;
#X obj 52 602 *~;
#X obj 172 646 +~;
#X obj 172 449 wrap~;
#X obj 248 508 *~;
#X obj 248 568 +~;
#X obj 190 585 cos~;
#X obj 190 612 *~;
#X obj 156 287 t b f;
#X floatatom 108 350 6 0 0 0 - - - 0;
#X obj 172 422 +~ 0.5;
#X obj 52 523 -~ 0.5;
#X obj 52 549 *~ 0.5;
#X obj 190 508 -~ 0.5;
#X obj 190 557 *~ 0.5;
#X obj 108 261 - 1;
#X obj 108 287 * -1;
#X text 36 341 tape head;
#X obj 108 381 phasor~;
#X obj 294 464 max 1.5;
#X obj 231 231 max 1;
#X text 36 354 rotation freq, f 9;
#X msg 231 422 \$1 200;
#X msg 294 488 \$1 200;
#X text 291 412 delay (ms);
#X obj 108 165 expr pow(2 \, $f1/1200);
#X text 154 199 speed change, f 6;
#X text 282 204 <-- window (ms);
#X obj 462 264 inlet~;
#X obj 358 151 loadbang;
#X obj 172 670 outlet~;
#X obj 109 585 delread4~ \$0-del, f 9;
#X obj 248 597 delread4~ \$0-del, f 9;
#X obj 461 307 delwrite~ \$0-del 5000;
#X obj 37 13 cnv 19 180 25 empty empty le.harmonizer~ 0 12 0 20 #e0e0e0 #404040 0;
#X text 36 41 Time based harmonizer;
#X obj 604 86 list prepend set;
#X obj 604 110 list trim;
#X obj 683 60 inlet;
#X text 673 38 feedback in;
#X text 155 129 transposition (cents);
#X obj 604 60 r \$1-harmo;
#X msg 358 175 100;
#X msg 390 175 10;
#X obj 577 480 print;
#X obj 577 441 symbol \$1;
#X obj 583 411 loadbang;
#X connect 0 0 35 0;
#X connect 1 0 9 0;
#X connect 2 0 1 1;
#X connect 2 0 14 1;
#X connect 3 0 30 0;
#X connect 4 0 25 0;
#X connect 5 0 19 0;
#X connect 6 0 18 0;
#X connect 7 0 9 1;
#X connect 7 0 15 1;
#X connect 8 0 29 0;
#X connect 9 0 41 0;
#X connect 10 0 11 0;
#X connect 11 0 12 0;
#X connect 12 0 40 0;
#X connect 13 0 14 0;
#X connect 13 0 23 0;
#X connect 14 0 15 0;
#X connect 15 0 42 0;
#X connect 16 0 17 0;
#X connect 17 0 12 1;
#X connect 18 0 5 0;
#X connect 18 1 5 1;
#X connect 19 0 28 0;
#X connect 20 0 13 0;
#X connect 21 0 22 0;
#X connect 22 0 10 0;
#X connect 23 0 24 0;
#X connect 24 0 16 0;
#X connect 25 0 26 0;
#X connect 26 0 5 0;
#X connect 28 0 1 0;
#X connect 28 0 21 0;
#X connect 28 0 20 0;
#X connect 29 0 33 0;
#X connect 30 0 6 0;
#X connect 30 0 32 0;
#X connect 32 0 2 0;
#X connect 33 0 7 0;
#X connect 35 0 4 0;
#X connect 38 0 43 0;
#X connect 39 0 52 0;
#X connect 39 0 53 0;
#X connect 41 0 11 1;
#X connect 42 0 17 1;
#X connect 46 0 47 0;
#X connect 47 0 0 0;
#X connect 48 0 46 0;
#X connect 48 0 35 0;
#X connect 51 0 46 0;
#X connect 51 0 35 0;
#X connect 52 0 3 0;
#X connect 53 0 8 0;
#X connect 55 0 54 0;
#X connect 56 0 55 0;
#X coords 0 -1 1 1 210 50 1 100 100;
