#N canvas 46 64 2560 1486 12;
#X obj 85 325 le.harmonizer~ \$0HD8s1;
#X obj 303 325 le.harmonizer~ \$0HD8s2;
#X obj 522 325 le.harmonizer~ \$0HD8s3;
#X obj 741 325 le.harmonizer~ \$0HD8s4;
#X obj 962 325 le.harmonizer~ \$0HD8s5;
#X obj 1179 325 le.harmonizer~ \$0HD8s6;
#X obj 1399 325 le.harmonizer~ \$0HD8s7;
#X obj 1617 325 le.harmonizer~ \$0HD8s8;
#X obj 85 404 le.delay~ \$0HD8s1;
#X obj 303 404 le.delay~ \$0HD8s2;
#X obj 522 404 le.delay~ \$0HD8s3;
#X obj 741 404 le.delay~ \$0HD8s4;
#X obj 962 404 le.delay~ \$0HD8s5;
#X obj 1179 404 le.delay~ \$0HD8s6;
#X obj 1399 404 le.delay~ \$0HD8s7;
#X obj 1617 404 le.delay~ \$0HD8s8;
#X obj 1323 886 metro 1000;
#X msg 1323 986 \$1 1000;
#X floatatom 1323 1034 5 0 0 0 - - - 0;
#X obj 1323 850 tgl 19 0 empty empty empty 0 -10 0 12 #fcfcfc #000000 #000000 0 1;
#X obj 1323 1057 send \$0HD8s3-harmo;
#X msg 1467 986 \$1 1000;
#X floatatom 1467 1034 5 0 0 0 - - - 0;
#X obj 1467 1057 send \$0HD8s4-harmo;
#X msg 1033 986 \$1 1000;
#X floatatom 1033 1034 5 0 0 0 - - - 0;
#X msg 1177 986 \$1 1000;
#X floatatom 1177 1034 5 0 0 0 - - - 0;
#X obj 1033 1057 send \$0HD8s1-harmo;
#X obj 1177 1057 send \$0HD8s2-harmo;
#X obj 1903 938 random 100;
#X obj 1903 962 - 50;
#X msg 1903 986 \$1 1000;
#X floatatom 1903 1034 5 0 0 0 - - - 0;
#X obj 2047 938 random 100;
#X obj 2047 962 - 50;
#X msg 2047 986 \$1 1000;
#X floatatom 2047 1034 5 0 0 0 - - - 0;
#X obj 1613 938 random 100;
#X obj 1613 962 - 50;
#X msg 1613 986 \$1 1000;
#X floatatom 1613 1034 5 0 0 0 - - - 0;
#X obj 1757 938 random 100;
#X obj 1757 962 - 50;
#X msg 1757 986 \$1 1000;
#X floatatom 1757 1034 5 0 0 0 - - - 0;
#X obj 1613 1057 send \$0HD8s5-harmo;
#X obj 1757 1057 send \$0HD8s6-harmo;
#X obj 1903 1057 send \$0HD8s7-harmo;
#X obj 2047 1057 send \$0HD8s8-harmo;
#X obj 1326 1133 metro 1000;
#X msg 1326 1262 \$1 1000;
#X floatatom 1326 1310 5 0 0 0 - - - 0;
#X obj 1326 1097 tgl 19 0 empty empty empty 0 -10 0 12 #fcfcfc #000000 #000000 0 1;
#X msg 1470 1260 \$1 1000;
#X floatatom 1470 1308 5 0 0 0 - - - 0;
#X msg 1036 1267 \$1 1000;
#X floatatom 1036 1315 5 0 0 0 - - - 0;
#X msg 1180 1265 \$1 1000;
#X floatatom 1180 1313 5 0 0 0 - - - 0;
#X msg 1906 1254 \$1 1000;
#X floatatom 1906 1302 5 0 0 0 - - - 0;
#X msg 2050 1252 \$1 1000;
#X floatatom 2050 1300 5 0 0 0 - - - 0;
#X msg 1616 1259 \$1 1000;
#X floatatom 1616 1307 5 0 0 0 - - - 0;
#X msg 1760 1257 \$1 1000;
#X floatatom 1760 1305 5 0 0 0 - - - 0;
#X obj 1036 1341 send \$0HD8s1-delay;
#X obj 1036 1185 random 200;
#X obj 1180 1183 random 200;
#X obj 1326 1180 random 200;
#X obj 1470 1178 random 200;
#X obj 1616 1177 random 200;
#X obj 1760 1175 random 200;
#X obj 1906 1172 random 200;
#X obj 2050 1170 random 200;
#X obj 1180 1339 send \$0HD8s2-delay;
#X obj 1326 1336 send \$0HD8s3-delay;
#X obj 1470 1333 send \$0HD8s4-delay;
#X obj 1616 1333 send \$0HD8s5-delay;
#X obj 1761 1330 send \$0HD8s6-delay;
#X obj 1906 1328 send \$0HD8s7-delay;
#X obj 2050 1325 send \$0HD8s8-delay;
#X obj 1033 1010 line 0 50;
#X obj 1177 1009 line 0 50;
#X obj 1323 1010 line 0 50;
#X obj 1467 1010 line 0 50;
#X obj 1613 1010 line 0 50;
#X obj 1757 1010 line 0 50;
#X obj 1903 1010 line 0 50;
#X obj 2047 1010 line 0 50;
#X obj 1036 1291 line 0 50;
#X obj 1180 1289 line 0 50;
#X obj 1326 1286 line 0 50;
#X obj 1470 1284 line 0 50;
#X obj 1616 1283 line 0 50;
#X obj 1760 1281 line 0 50;
#X obj 1906 1278 line 0 50;
#X obj 2050 1276 line 0 50;
#X obj 1467 938 random 100;
#X obj 1323 938 random 100;
#X obj 1177 938 random 100;
#X obj 1033 938 random 100;
#X obj 1033 962 - 50;
#X obj 1177 962 - 50;
#X obj 1323 962 - 50;
#X obj 1467 962 - 50;
#X obj 68 26 cnv 19 120 30 empty empty le.HD8s~ 0 12 0 25 #e0e0e0 #404040 0;
#X obj 84 559 snake~ in 8, f 220;
#X obj 84 583 send~ \$1-snake;
#X obj 412 616 r \$0HD8s1-harmo;
#X obj 556 616 r \$0HD8s2-harmo;
#X obj 702 616 r \$0HD8s3-harmo;
#X obj 846 616 r \$0HD8s4-harmo;
#X obj 512 687 r \$0HD8s5-harmo;
#X obj 656 687 r \$0HD8s6-harmo;
#X obj 802 687 r \$0HD8s7-harmo;
#X obj 946 687 r \$0HD8s8-harmo;
#X obj 423 773 r \$0HD8s1-delay;
#X obj 567 771 r \$0HD8s2-delay;
#X obj 713 768 r \$0HD8s3-delay;
#X obj 857 765 r \$0HD8s4-delay;
#X obj 520 842 r \$0HD8s5-delay;
#X obj 665 839 r \$0HD8s6-delay;
#X obj 809 844 r \$0HD8s7-delay;
#X obj 953 841 r \$0HD8s8-delay;
#X text 673 38 feedback in;
#X text 122 833 TRASNPOSE;
#X floatatom 127 856 5 0 0 0 1- - - 0;
#X floatatom 127 880 5 0 0 0 2- - - 0;
#X floatatom 127 904 5 0 0 0 3- - - 0;
#X floatatom 127 928 5 0 0 0 4- - - 0;
#X floatatom 127 952 5 0 0 0 5- - - 0;
#X floatatom 127 976 5 0 0 0 6- - - 0;
#X floatatom 127 1000 5 0 0 0 7- - - 0;
#X floatatom 127 1024 5 0 0 0 8- - - 0;
#X floatatom 195 855 5 0 0 0 - - - 0;
#X floatatom 195 879 5 0 0 0 - - - 0;
#X floatatom 195 903 5 0 0 0 - - - 0;
#X floatatom 195 927 5 0 0 0 - - - 0;
#X floatatom 195 951 5 0 0 0 - - - 0;
#X floatatom 195 975 5 0 0 0 - - - 0;
#X floatatom 195 999 5 0 0 0 - - - 0;
#X floatatom 195 1023 5 0 0 0 - - - 0;
#X text 190 832 TIME;
#X floatatom 255 856 5 0 0 0 - - - 0;
#X floatatom 255 880 5 0 0 0 - - - 0;
#X floatatom 255 904 5 0 0 0 - - - 0;
#X floatatom 255 928 5 0 0 0 - - - 0;
#X floatatom 255 952 5 0 0 0 - - - 0;
#X floatatom 255 976 5 0 0 0 - - - 0;
#X floatatom 255 1000 5 0 0 0 - - - 0;
#X floatatom 255 1024 5 0 0 0 - - - 0;
#X text 250 833 FB;
#X msg 412 641 set \$1;
#X msg 555 642 set \$1;
#X msg 701 644 set \$1;
#X msg 848 644 set \$1;
#X msg 510 717 set \$1;
#X msg 653 718 set \$1;
#X msg 799 720 set \$1;
#X msg 946 720 set \$1;
#X msg 421 797 set \$1;
#X msg 564 798 set \$1;
#X msg 710 800 set \$1;
#X msg 857 800 set \$1;
#X msg 519 873 set \$1;
#X msg 662 874 set \$1;
#X msg 808 876 set \$1;
#X msg 955 876 set \$1;
#X obj 596 1071 r \$1-time;
#X obj 402 1071 r \$1-transpose;
#X text 586 1031 RECEIVE FROM PLAYLIST;
#X obj 402 1095 unpack f f f f f f f f;
#X obj 596 1095 unpack f f f f f f f f;
#X obj 774 1093 unpack f f f f f f f f;
#X obj 774 1069 r \$1-FB;
#X obj 380 1176 send \$0HD8s3-harmo;
#X obj 524 1176 send \$0HD8s4-harmo;
#X obj 90 1176 send \$0HD8s1-harmo;
#X obj 234 1176 send \$0HD8s2-harmo;
#X obj 136 1213 send \$0HD8s5-harmo;
#X obj 280 1213 send \$0HD8s6-harmo;
#X obj 426 1213 send \$0HD8s7-harmo;
#X obj 570 1213 send \$0HD8s8-harmo;
#X obj 94 1260 send \$0HD8s1-delay;
#X obj 238 1258 send \$0HD8s2-delay;
#X obj 384 1255 send \$0HD8s3-delay;
#X obj 528 1252 send \$0HD8s4-delay;
#X obj 162 1304 send \$0HD8s5-delay;
#X obj 307 1301 send \$0HD8s6-delay;
#X obj 452 1299 send \$0HD8s7-delay;
#X obj 608 1300 send \$0HD8s8-delay;
#X obj 95 1345 send \$0HD8s1-delfb;
#X obj 239 1343 send \$0HD8s2-delfb;
#X obj 385 1340 send \$0HD8s3-delfb;
#X obj 529 1337 send \$0HD8s4-delfb;
#X obj 163 1389 send \$0HD8s5-delfb;
#X obj 308 1386 send \$0HD8s6-delfb;
#X obj 453 1384 send \$0HD8s7-delfb;
#X obj 609 1385 send \$0HD8s8-delfb;
#X obj 604 60 r~ \$1-HD8s;
#X obj 683 60 inlet~;
#X text 310 835 RANDOM;
#X obj 310 861 tgl 19 0 empty empty transpose 25 10 0 12 #fcfcfc #000000 #000000 0 1;
#X floatatom 311 891 5 0 0 1 max - - 0;
#X floatatom 310 917 5 0 0 1 min - - 0;
#X floatatom 127 1047 5 0 0 0 all - - 0;
#X floatatom 195 1046 5 0 0 0 - - - 0;
#X floatatom 256 1048 5 0 0 0 - - - 0;
#X obj 311 942 tgl 19 0 empty empty delay 25 10 0 12 #fcfcfc #000000 #000000 0 1;
#X floatatom 311 973 5 0 0 1 max - - 0;
#X floatatom 310 999 5 0 0 1 min - - 0;
#X obj 1036 1221 + 0;
#X obj 1180 1219 + 0;
#X obj 1326 1216 + 0;
#X obj 1470 1214 + 0;
#X obj 1616 1213 + 0;
#X obj 1760 1211 + 0;
#X obj 1906 1208 + 0;
#X obj 2050 1206 + 0;
#X obj 1140 748 loadbang;
#X msg 1140 772 100;
#X msg 1152 795 50;
#X msg 1191 774 200;
#X msg 1203 801 0;
#X text 67 61 8 harmonizer + delay modules;
#X connect 0 0 8 0;
#X connect 1 0 9 0;
#X connect 2 0 10 0;
#X connect 3 0 11 0;
#X connect 4 0 12 0;
#X connect 5 0 13 0;
#X connect 6 0 14 0;
#X connect 7 0 15 0;
#X connect 8 0 109 0;
#X connect 9 0 109 1;
#X connect 10 0 109 2;
#X connect 11 0 109 3;
#X connect 12 0 109 4;
#X connect 13 0 109 5;
#X connect 14 0 109 6;
#X connect 15 0 109 7;
#X connect 16 0 34 0;
#X connect 16 0 30 0;
#X connect 16 0 42 0;
#X connect 16 0 38 0;
#X connect 16 0 100 0;
#X connect 16 0 101 0;
#X connect 16 0 102 0;
#X connect 16 0 103 0;
#X connect 17 0 86 0;
#X connect 18 0 20 0;
#X connect 19 0 16 0;
#X connect 21 0 87 0;
#X connect 22 0 23 0;
#X connect 24 0 84 0;
#X connect 25 0 28 0;
#X connect 26 0 85 0;
#X connect 27 0 29 0;
#X connect 30 0 31 0;
#X connect 31 0 32 0;
#X connect 32 0 90 0;
#X connect 33 0 48 0;
#X connect 34 0 35 0;
#X connect 35 0 36 0;
#X connect 36 0 91 0;
#X connect 37 0 49 0;
#X connect 38 0 39 0;
#X connect 39 0 40 0;
#X connect 40 0 88 0;
#X connect 41 0 46 0;
#X connect 42 0 43 0;
#X connect 43 0 44 0;
#X connect 44 0 89 0;
#X connect 45 0 47 0;
#X connect 50 0 74 0;
#X connect 50 0 75 0;
#X connect 50 0 76 0;
#X connect 50 0 73 0;
#X connect 50 0 72 0;
#X connect 50 0 71 0;
#X connect 50 0 70 0;
#X connect 50 0 69 0;
#X connect 51 0 94 0;
#X connect 52 0 78 0;
#X connect 53 0 50 0;
#X connect 54 0 95 0;
#X connect 55 0 79 0;
#X connect 56 0 92 0;
#X connect 57 0 68 0;
#X connect 58 0 93 0;
#X connect 59 0 77 0;
#X connect 60 0 98 0;
#X connect 61 0 82 0;
#X connect 62 0 99 0;
#X connect 63 0 83 0;
#X connect 64 0 96 0;
#X connect 65 0 80 0;
#X connect 66 0 97 0;
#X connect 67 0 81 0;
#X connect 69 0 214 0;
#X connect 70 0 215 0;
#X connect 71 0 216 0;
#X connect 72 0 217 0;
#X connect 73 0 218 0;
#X connect 74 0 219 0;
#X connect 75 0 220 0;
#X connect 76 0 221 0;
#X connect 84 0 25 0;
#X connect 85 0 27 0;
#X connect 86 0 18 0;
#X connect 87 0 22 0;
#X connect 88 0 41 0;
#X connect 89 0 45 0;
#X connect 90 0 33 0;
#X connect 91 0 37 0;
#X connect 92 0 57 0;
#X connect 93 0 59 0;
#X connect 94 0 52 0;
#X connect 95 0 55 0;
#X connect 96 0 65 0;
#X connect 97 0 67 0;
#X connect 98 0 61 0;
#X connect 99 0 63 0;
#X connect 100 0 107 0;
#X connect 101 0 106 0;
#X connect 102 0 105 0;
#X connect 103 0 104 0;
#X connect 104 0 24 0;
#X connect 105 0 26 0;
#X connect 106 0 17 0;
#X connect 107 0 21 0;
#X connect 109 0 110 0;
#X connect 111 0 155 0;
#X connect 112 0 156 0;
#X connect 113 0 157 0;
#X connect 114 0 158 0;
#X connect 115 0 159 0;
#X connect 116 0 160 0;
#X connect 117 0 161 0;
#X connect 118 0 162 0;
#X connect 119 0 163 0;
#X connect 120 0 164 0;
#X connect 121 0 165 0;
#X connect 122 0 166 0;
#X connect 123 0 167 0;
#X connect 124 0 168 0;
#X connect 125 0 169 0;
#X connect 126 0 170 0;
#X connect 129 0 180 0;
#X connect 130 0 181 0;
#X connect 131 0 178 0;
#X connect 132 0 179 0;
#X connect 133 0 182 0;
#X connect 134 0 183 0;
#X connect 135 0 184 0;
#X connect 136 0 185 0;
#X connect 137 0 186 0;
#X connect 138 0 187 0;
#X connect 139 0 188 0;
#X connect 140 0 189 0;
#X connect 141 0 190 0;
#X connect 142 0 191 0;
#X connect 143 0 192 0;
#X connect 144 0 193 0;
#X connect 146 0 194 0;
#X connect 147 0 195 0;
#X connect 148 0 196 0;
#X connect 149 0 197 0;
#X connect 150 0 198 0;
#X connect 151 0 199 0;
#X connect 152 0 200 0;
#X connect 153 0 201 0;
#X connect 155 0 129 0;
#X connect 156 0 130 0;
#X connect 157 0 131 0;
#X connect 158 0 132 0;
#X connect 159 0 133 0;
#X connect 160 0 134 0;
#X connect 161 0 135 0;
#X connect 162 0 136 0;
#X connect 163 0 137 0;
#X connect 164 0 138 0;
#X connect 165 0 139 0;
#X connect 166 0 140 0;
#X connect 167 0 141 0;
#X connect 168 0 142 0;
#X connect 169 0 143 0;
#X connect 170 0 144 0;
#X connect 171 0 175 0;
#X connect 172 0 174 0;
#X connect 174 0 129 0;
#X connect 174 1 130 0;
#X connect 174 2 131 0;
#X connect 174 3 132 0;
#X connect 174 4 133 0;
#X connect 174 5 134 0;
#X connect 174 6 135 0;
#X connect 174 7 136 0;
#X connect 175 0 137 0;
#X connect 175 1 138 0;
#X connect 175 2 139 0;
#X connect 175 3 140 0;
#X connect 175 4 141 0;
#X connect 175 5 142 0;
#X connect 175 6 143 0;
#X connect 175 7 144 0;
#X connect 176 0 146 0;
#X connect 176 1 147 0;
#X connect 176 2 148 0;
#X connect 176 3 149 0;
#X connect 176 4 150 0;
#X connect 176 5 151 0;
#X connect 176 6 152 0;
#X connect 176 7 153 0;
#X connect 177 0 176 0;
#X connect 202 0 0 0;
#X connect 202 0 7 0;
#X connect 202 0 6 0;
#X connect 202 0 5 0;
#X connect 202 0 4 0;
#X connect 202 0 3 0;
#X connect 202 0 2 0;
#X connect 202 0 1 0;
#X connect 203 0 0 0;
#X connect 203 0 7 0;
#X connect 203 0 6 0;
#X connect 203 0 5 0;
#X connect 203 0 4 0;
#X connect 203 0 3 0;
#X connect 203 0 2 0;
#X connect 203 0 1 0;
#X connect 205 0 19 0;
#X connect 206 0 103 1;
#X connect 206 0 102 1;
#X connect 206 0 101 1;
#X connect 206 0 100 1;
#X connect 206 0 42 1;
#X connect 206 0 38 1;
#X connect 206 0 34 1;
#X connect 206 0 30 1;
#X connect 207 0 104 1;
#X connect 207 0 107 1;
#X connect 207 0 106 1;
#X connect 207 0 105 1;
#X connect 207 0 43 1;
#X connect 207 0 39 1;
#X connect 207 0 35 1;
#X connect 207 0 31 1;
#X connect 211 0 53 0;
#X connect 212 0 69 1;
#X connect 212 0 76 1;
#X connect 212 0 75 1;
#X connect 212 0 74 1;
#X connect 212 0 73 1;
#X connect 212 0 72 1;
#X connect 212 0 71 1;
#X connect 212 0 70 1;
#X connect 213 0 214 1;
#X connect 213 0 221 1;
#X connect 213 0 220 1;
#X connect 213 0 219 1;
#X connect 213 0 218 1;
#X connect 213 0 217 1;
#X connect 213 0 216 1;
#X connect 213 0 215 1;
#X connect 214 0 56 0;
#X connect 215 0 58 0;
#X connect 216 0 51 0;
#X connect 217 0 54 0;
#X connect 218 0 64 0;
#X connect 219 0 66 0;
#X connect 220 0 60 0;
#X connect 221 0 62 0;
#X connect 222 0 223 0;
#X connect 222 0 224 0;
#X connect 222 0 225 0;
#X connect 222 0 226 0;
#X connect 223 0 206 0;
#X connect 224 0 207 0;
#X connect 225 0 212 0;
#X connect 226 0 213 0;
#X coords 0 -1 1 1 300 275 1 100 800;
