#N canvas 1221 449 1254 761 12;
#X declare -path ../utility;
#X obj 777 118 route 1 2 3 4 5 6 7 8 9 10 11 12;
#X obj 436 544 / 12;
#X floatatom 18 115 8 0 0 0 - - - 0;
#X obj 788 406 *~;
#X obj 805 434 *~;
#X obj 822 465 *~;
#X obj 839 493 *~;
#X obj 859 406 *~;
#X obj 876 434 *~;
#X obj 893 465 *~;
#X obj 915 493 *~;
#X obj 936 406 *~;
#X obj 953 434 *~;
#X obj 969 465 *~;
#X obj 986 493 *~;
#N canvas 32 32 1027 306 window 0;
#X obj 28 24 inlet~;
#X obj 28 85 outlet~;
#X obj 85 85 inlet~;
#X obj 85 146 outlet~;
#X obj 143 148 inlet~;
#X obj 143 209 outlet~;
#X obj 200 209 inlet~;
#X obj 200 270 outlet~;
#X obj 295 15 inlet~;
#X obj 295 76 outlet~;
#X obj 352 76 inlet~;
#X obj 352 137 outlet~;
#X obj 410 139 inlet~;
#X obj 410 200 outlet~;
#X obj 467 200 inlet~;
#X obj 467 261 outlet~;
#X obj 573 16 inlet~;
#X obj 573 77 outlet~;
#X obj 630 77 inlet~;
#X obj 630 138 outlet~;
#X obj 688 140 inlet~;
#X obj 688 201 outlet~;
#X obj 745 201 inlet~;
#X obj 745 262 outlet~;
#X obj 28 60 expr~ -($v1*($v1-2));
#X obj 84 122 expr~ -($v1*($v1-2));
#X obj 143 185 expr~ -($v1*($v1-2));
#X obj 200 247 expr~ -($v1*($v1-2));
#X obj 295 52 expr~ -($v1*($v1-2));
#X obj 352 113 expr~ -($v1*($v1-2));
#X obj 410 176 expr~ -($v1*($v1-2));
#X obj 467 237 expr~ -($v1*($v1-2));
#X obj 573 53 expr~ -($v1*($v1-2));
#X obj 630 114 expr~ -($v1*($v1-2));
#X obj 688 177 expr~ -($v1*($v1-2));
#X obj 745 238 expr~ -($v1*($v1-2));
#X connect 0 0 24 0;
#X connect 2 0 25 0;
#X connect 4 0 26 0;
#X connect 6 0 27 0;
#X connect 8 0 28 0;
#X connect 10 0 29 0;
#X connect 12 0 30 0;
#X connect 14 0 31 0;
#X connect 16 0 32 0;
#X connect 18 0 33 0;
#X connect 20 0 34 0;
#X connect 22 0 35 0;
#X connect 24 0 1 0;
#X connect 25 0 3 0;
#X connect 26 0 5 0;
#X connect 27 0 7 0;
#X connect 28 0 9 0;
#X connect 29 0 11 0;
#X connect 30 0 13 0;
#X connect 31 0 15 0;
#X connect 32 0 17 0;
#X connect 33 0 19 0;
#X connect 34 0 21 0;
#X connect 35 0 23 0;
#X restore 777 282 pd window;
#X f 29;
#X msg 350 43 1 2 4 6 8 7 5 3;
#X msg 379 297 1;
#X msg 311 43 0;
#X text 300 176 PATH TO ITER;
#X obj 513 264 list length;
#X obj 325 340 array set \$0_Run;
#X obj 1043 117 r \$0_Rtime_ms;
#X obj 19 212 s \$0_stacca_lega;
#X listbox 19 63 26 0 0 0 - - - 0;
#X obj 18 37 hradio 20 1 0 12 empty \$0_line spAAce_\$1 0 -28 0 12 #404040 #c6feff #2f004d 0;
#X obj 302 196 r spAAce\$1-path;
#X text 204 62 PATH;
#X obj 19 88 tgl 19 0 empty empty empty 0 -10 0 12 #fcfcfc #000000 #000000 0 1;
#X text 40 89 staccato (0) - legato (1);
#X obj 41 188 r spAAce\$1-stacca-lega;
#X obj 311 15 loadbang;
#X obj 219 570 list trim;
#X msg 219 521 send;
#X obj 219 546 list append \$0_Rtime_ms;
#X obj 302 220 t l l b;
#X msg 545 313 0;
#X text 598 261 List length saved in array \$0_Run[0], f 19;
#X text 17 20 1 2;
#X text 57 20 3 4;
#X text 99 20 5 6;
#X text 137 20 7 8;
#X text 216 20 11 12;
#X text 180 20 9 10;
#X obj 992 16 declare -path ../utility;
#X obj 777 150 u.liner~;
#X obj 796 176 u.liner~;
#X obj 813 204 u.liner~;
#X obj 831 230 u.liner~;
#X obj 850 150 u.liner~;
#X obj 869 177 u.liner~;
#X obj 886 204 u.liner~;
#X obj 904 230 u.liner~;
#X obj 924 150 u.liner~;
#X obj 943 177 u.liner~;
#X obj 960 204 u.liner~;
#X obj 978 230 u.liner~;
#X text 357 216 List saved in array from \$0_Run[1], f 19;
#X obj 197 300 list trim;
#X obj 197 276 list prepend set;
#X obj 777 84 l0.iterator \$0;
#X text 503 8 PARAMS: spAAce\$1- path -- speakers in path (list of integers) time -- time to complete path (ms) stacca-lega -- one speaker always active (toggle 0-1), f 62;
#X text 78 116 time;
#X obj 273 90 r spAAce\$1-time;
#X obj 384 488 t b f;
#X obj 367 629 value time\$0;
#X obj 1042 316 inlet~;
#X text 307 489 path time;
#X text 469 544 time per speaker;
#X obj 385 450 float;
#X obj 389 407 t b f;
#X obj 513 288 t f b;
#X obj 790 585 snake~ 12, f 29;
#X obj 790 609 throw~ io-output 12;
#X msg 19 86;
#X connect 0 0 45 0;
#X connect 0 1 46 0;
#X connect 0 2 47 0;
#X connect 0 3 48 0;
#X connect 0 4 49 0;
#X connect 0 5 50 0;
#X connect 0 6 51 0;
#X connect 0 7 52 0;
#X connect 0 8 53 0;
#X connect 0 9 54 0;
#X connect 0 10 55 0;
#X connect 0 11 56 0;
#X connect 1 0 65 0;
#X connect 2 0 69 0;
#X connect 3 0 72 0;
#X connect 4 0 72 1;
#X connect 5 0 72 2;
#X connect 6 0 72 3;
#X connect 7 0 72 4;
#X connect 8 0 72 5;
#X connect 9 0 72 6;
#X connect 10 0 72 7;
#X connect 11 0 72 8;
#X connect 12 0 72 9;
#X connect 13 0 72 10;
#X connect 14 0 72 11;
#X connect 15 0 3 1;
#X connect 15 1 4 1;
#X connect 15 2 5 1;
#X connect 15 3 6 1;
#X connect 15 4 7 1;
#X connect 15 5 8 1;
#X connect 15 6 9 1;
#X connect 15 7 10 1;
#X connect 15 8 11 1;
#X connect 15 9 12 1;
#X connect 15 10 13 1;
#X connect 15 11 14 1;
#X connect 16 0 24 0;
#X connect 17 0 21 1;
#X connect 18 0 28 0;
#X connect 18 0 2 0;
#X connect 20 0 71 0;
#X connect 22 0 45 1;
#X connect 22 0 46 1;
#X connect 22 0 47 1;
#X connect 22 0 48 1;
#X connect 22 0 49 1;
#X connect 22 0 50 1;
#X connect 22 0 51 1;
#X connect 22 0 52 1;
#X connect 22 0 53 1;
#X connect 22 0 54 1;
#X connect 22 0 55 1;
#X connect 22 0 56 1;
#X connect 24 0 35 0;
#X connect 24 0 74 0;
#X connect 26 0 35 0;
#X connect 26 0 59 0;
#X connect 28 0 23 0;
#X connect 30 0 28 0;
#X connect 31 0 18 0;
#X connect 31 0 16 0;
#X connect 32 0 65 0;
#X connect 33 0 34 0;
#X connect 34 0 32 0;
#X connect 35 0 20 0;
#X connect 35 1 21 0;
#X connect 35 2 17 0;
#X connect 36 0 21 1;
#X connect 45 0 15 0;
#X connect 46 0 15 1;
#X connect 47 0 15 2;
#X connect 48 0 15 3;
#X connect 49 0 15 4;
#X connect 50 0 15 5;
#X connect 51 0 15 6;
#X connect 52 0 15 7;
#X connect 53 0 15 8;
#X connect 54 0 15 9;
#X connect 55 0 15 10;
#X connect 56 0 15 11;
#X connect 58 0 24 0;
#X connect 59 0 58 0;
#X connect 60 0 0 0;
#X connect 63 0 2 0;
#X connect 64 0 33 0;
#X connect 64 1 1 0;
#X connect 66 0 3 0;
#X connect 66 0 4 0;
#X connect 66 0 5 0;
#X connect 66 0 6 0;
#X connect 66 0 7 0;
#X connect 66 0 8 0;
#X connect 66 0 9 0;
#X connect 66 0 10 0;
#X connect 66 0 11 0;
#X connect 66 0 12 0;
#X connect 66 0 13 0;
#X connect 66 0 14 0;
#X connect 69 0 64 0;
#X connect 70 0 69 0;
#X connect 70 1 1 1;
#X connect 71 0 21 0;
#X connect 71 0 70 0;
#X connect 71 1 36 0;
#X connect 72 0 73 0;
#X coords 0 -1 10 1 284 153 2 10 0;
