#N canvas 108 357 1203 674 12;
#X declare -path ../utility;
#X obj 410 437 value time1;
#X obj 416 176 inlet;
#X obj 774 127 route 1 2 3 4 5 6 7 8 9 10 11 12;
#X obj 439 374 / 12;
#X floatatom 332 144 5 0 0 0 - - - 0;
#X obj 785 415 *~;
#X obj 802 443 *~;
#X obj 819 474 *~;
#X obj 836 502 *~;
#X obj 856 415 *~;
#X obj 873 443 *~;
#X obj 890 474 *~;
#X obj 912 502 *~;
#X obj 933 415 *~;
#X obj 950 443 *~;
#X obj 966 474 *~;
#X obj 983 502 *~;
#X obj 787 594 dac~ 1 2 3 4 5 6 7 8 9 10 11 12;
#X text 420 149 comment;
#N canvas 32 32 1027 306 window 0;
#X obj 28 24 inlet~;
#X obj 28 85 outlet~;
#X obj 85 85 inlet~;
#X obj 85 146 outlet~;
#X obj 143 148 inlet~;
#X obj 143 209 outlet~;
#X obj 200 209 inlet~;
#X obj 200 270 outlet~;
#X obj 295 15 inlet~;
#X obj 295 76 outlet~;
#X obj 352 76 inlet~;
#X obj 352 137 outlet~;
#X obj 410 139 inlet~;
#X obj 410 200 outlet~;
#X obj 467 200 inlet~;
#X obj 467 261 outlet~;
#X obj 573 16 inlet~;
#X obj 573 77 outlet~;
#X obj 630 77 inlet~;
#X obj 630 138 outlet~;
#X obj 688 140 inlet~;
#X obj 688 201 outlet~;
#X obj 745 201 inlet~;
#X obj 745 262 outlet~;
#X obj 28 60 expr~ -($v1*($v1-2));
#X obj 84 122 expr~ -($v1*($v1-2));
#X obj 143 185 expr~ -($v1*($v1-2));
#X obj 200 247 expr~ -($v1*($v1-2));
#X obj 295 52 expr~ -($v1*($v1-2));
#X obj 352 113 expr~ -($v1*($v1-2));
#X obj 410 176 expr~ -($v1*($v1-2));
#X obj 467 237 expr~ -($v1*($v1-2));
#X obj 573 53 expr~ -($v1*($v1-2));
#X obj 630 114 expr~ -($v1*($v1-2));
#X obj 688 177 expr~ -($v1*($v1-2));
#X obj 745 238 expr~ -($v1*($v1-2));
#X connect 0 0 24 0;
#X connect 2 0 25 0;
#X connect 4 0 26 0;
#X connect 6 0 27 0;
#X connect 8 0 28 0;
#X connect 10 0 29 0;
#X connect 12 0 30 0;
#X connect 14 0 31 0;
#X connect 16 0 32 0;
#X connect 18 0 33 0;
#X connect 20 0 34 0;
#X connect 22 0 35 0;
#X connect 24 0 1 0;
#X connect 25 0 3 0;
#X connect 26 0 5 0;
#X connect 27 0 7 0;
#X connect 28 0 9 0;
#X connect 29 0 11 0;
#X connect 30 0 13 0;
#X connect 31 0 15 0;
#X connect 32 0 17 0;
#X connect 33 0 19 0;
#X connect 34 0 21 0;
#X connect 35 0 23 0;
#X restore 774 291 pd window;
#X f 29;
#X obj 54 7231 output~;
#X obj 64 7241 output~;
#X obj 74 7251 output~;
#X msg 350 43 1 2 4 6 8 7 5 3;
#X msg 210 589 1;
#X msg 311 43 0;
#X text 131 468 PATH TO ITER;
#X obj 344 556 list length;
#X obj 156 632 array set \$0_Run;
#X obj 1040 126 r \$0_Rtime_ms;
#X obj 19 212 s \$0_stacca_lega;
#X listbox 19 63 20 0 0 0 - - - 0;
#X obj 18 37 hradio 20 1 0 12 empty \$0_line spAAce_\$1 0 -28 0 12 #404040 #c6feff #2f004d 0;
#X obj 133 488 r spAAce\$1-path;
#X text 161 62 PATH;
#X obj 19 88 tgl 19 0 empty empty empty 0 -10 0 12 #fcfcfc #000000 #000000 0 1;
#X text 40 89 staccato (0) - legato (1);
#X obj 41 188 r spAAce\$1-stacca-lega;
#X obj 311 15 loadbang;
#X obj 473 202 r \$0_iter_N;
#X obj 218 325 list trim;
#X msg 218 276 send;
#X obj 218 301 list append \$0_Rtime_ms;
#X obj 133 512 t l l b;
#X obj 344 580 t l b;
#X msg 376 605 0;
#X text 429 553 List length saved in array \$0_Run[0], f 19;
#X text 17 20 1 2;
#X text 57 20 3 4;
#X text 99 20 5 6;
#X text 137 20 7 8;
#X text 216 20 11 12;
#X text 180 20 9 10;
#X obj 416 200 t b f b;
#X obj 992 16 declare -path ../utility;
#X obj 774 159 u.liner~;
#X obj 793 185 u.liner~;
#X obj 810 213 u.liner~;
#X obj 828 239 u.liner~;
#X obj 847 159 u.liner~;
#X obj 866 186 u.liner~;
#X obj 883 213 u.liner~;
#X obj 901 239 u.liner~;
#X obj 921 159 u.liner~;
#X obj 940 186 u.liner~;
#X obj 957 213 u.liner~;
#X obj 975 239 u.liner~;
#X text 188 508 List saved in array from \$0_Run[1], f 19;
#X obj 20 571 list trim;
#X obj 20 547 list prepend set;
#X obj 774 93 l0.iterator \$0;
#X connect 1 0 53 0;
#X connect 2 0 55 0;
#X connect 2 1 56 0;
#X connect 2 2 57 0;
#X connect 2 3 58 0;
#X connect 2 4 59 0;
#X connect 2 5 60 0;
#X connect 2 6 61 0;
#X connect 2 7 62 0;
#X connect 2 8 63 0;
#X connect 2 9 64 0;
#X connect 2 10 65 0;
#X connect 2 11 66 0;
#X connect 3 0 0 0;
#X connect 4 0 53 0;
#X connect 5 0 17 0;
#X connect 6 0 17 1;
#X connect 7 0 17 2;
#X connect 8 0 17 3;
#X connect 9 0 17 4;
#X connect 10 0 17 5;
#X connect 11 0 17 6;
#X connect 12 0 17 7;
#X connect 13 0 17 8;
#X connect 14 0 17 9;
#X connect 15 0 17 10;
#X connect 16 0 17 11;
#X connect 19 0 5 1;
#X connect 19 1 6 1;
#X connect 19 2 7 1;
#X connect 19 3 8 1;
#X connect 19 4 9 1;
#X connect 19 5 10 1;
#X connect 19 6 11 1;
#X connect 19 7 12 1;
#X connect 19 8 13 1;
#X connect 19 9 14 1;
#X connect 19 10 15 1;
#X connect 19 11 16 1;
#X connect 23 0 31 0;
#X connect 24 0 28 1;
#X connect 25 0 35 0;
#X connect 27 0 44 0;
#X connect 29 0 55 1;
#X connect 29 0 56 1;
#X connect 29 0 57 1;
#X connect 29 0 58 1;
#X connect 29 0 59 1;
#X connect 29 0 60 1;
#X connect 29 0 61 1;
#X connect 29 0 62 1;
#X connect 29 0 63 1;
#X connect 29 0 64 1;
#X connect 29 0 65 1;
#X connect 29 0 66 1;
#X connect 33 0 43 0;
#X connect 33 0 69 0;
#X connect 35 0 30 0;
#X connect 37 0 35 0;
#X connect 38 0 25 0;
#X connect 38 0 23 0;
#X connect 40 0 0 0;
#X connect 41 0 42 0;
#X connect 42 0 40 0;
#X connect 43 0 27 0;
#X connect 43 1 28 0;
#X connect 43 2 24 0;
#X connect 44 0 28 0;
#X connect 44 1 45 0;
#X connect 45 0 28 1;
#X connect 53 0 41 0;
#X connect 53 1 3 0;
#X connect 55 0 19 0;
#X connect 56 0 19 1;
#X connect 57 0 19 2;
#X connect 58 0 19 3;
#X connect 59 0 19 4;
#X connect 60 0 19 5;
#X connect 61 0 19 6;
#X connect 62 0 19 7;
#X connect 63 0 19 8;
#X connect 64 0 19 9;
#X connect 65 0 19 10;
#X connect 66 0 19 11;
#X connect 68 0 31 0;
#X connect 69 0 68 0;
#X connect 70 0 2 0;
#X coords 0 -1 10 1 250 150 1 10 0;
