#N canvas 64 174 1022 631 12;
#X declare -path ../logic;
#X obj 22 221 bng 19 250 50 0 empty empty empty 0 -10 0 12 #fcfcfc #000000 #000000;
#X obj 57 295 counter 1 10;
#N canvas 32 32 450 250 (subpatch) 0;
#X array \$1_Run 13 float 2;
#X coords 0 12 13 0 200 140 1 0 0;
#X restore 694 128 graph;
#X obj 711 29 declare -path ../logic;
#X msg 749 493 1;
#X obj 695 526 array set \$1_Run;
#X msg 695 461 1 2 3 4 5 6 7 8 9 10 11 12;
#X obj 695 401 loadbang;
#X obj 695 425 t b b;
#X text 237 60 number of speakers on this path, f 18;
#X obj 239 95 r \$1_iter_N;
#X text 14 9 Mattia Pizzato - April 2nd 2025 Based on spAAce - © Alvise Vidolin - April 15th 2009;
#X obj 55 512 array get \$1_Run;
#X obj 57 319 t b f;
#X obj 55 578 outlet;
#X obj 57 263 metro~;
#X floatatom 106 319 5 0 0 0 - - - 0;
#X obj 57 94 r \$1_Rtime_ms;
#X obj 191 511 array get \$1_Run;
#X obj 191 463 spigot;
#X obj 191 487 t b f;
#X obj 321 509 array get \$1_Run;
#X obj 321 461 spigot;
#X obj 321 485 t b f;
#X obj 378 369 r \$1_stacca_lega;
#X text 57 56 durata permanenza in un canale, f 18;
#X text 376 333 staccato (0) legato(1), f 13;
#X obj 378 427 !- 1;
#X msg 551 439 0;
#X obj 551 463 s \$1_stacca_lega;
#X obj 193 353 mod;
#X obj 323 351 mod;
#X obj 114 579 s \$1_Line;
#X text 820 325 PATH TO ITER;
#X msg 55 536 \$1 1;
#X msg 191 535 \$1 0;
#X msg 321 533 \$1 0;
#X obj 844 499 list length;
#X obj 844 525 s \$1_iter_N;
#X obj 193 329 - 1;
#X obj 323 327 - 2;
#X obj 193 377 sel 0;
#X msg 193 401 2;
#X msg 254 378 set \$1;
#X obj 323 381 sel 0;
#X msg 323 405 2;
#X obj 378 393 t f b;
#X obj 823 348 r \$1_iter_path;
#X obj 823 372 t l b;
#X msg 462 506 1 0 \, 2 0 \, 3 0 \, 4 0 \, 5 0 \, 6 0 \, 7 0 \, 8 0 \, 9 0 \, 10 0 \, 11 0 \, 12 0, f 25;
#X connect 0 0 1 0;
#X connect 1 0 13 0;
#X connect 1 0 16 0;
#X connect 1 0 39 0;
#X connect 1 0 40 0;
#X connect 4 0 5 1;
#X connect 6 0 5 0;
#X connect 6 0 37 0;
#X connect 7 0 8 0;
#X connect 7 0 28 0;
#X connect 8 0 6 0;
#X connect 8 1 4 0;
#X connect 10 0 1 2;
#X connect 10 0 30 1;
#X connect 10 0 31 1;
#X connect 10 0 43 0;
#X connect 12 0 34 0;
#X connect 13 0 12 0;
#X connect 13 1 12 0;
#X connect 15 0 1 0;
#X connect 17 0 15 0;
#X connect 18 0 35 0;
#X connect 19 0 20 0;
#X connect 20 0 18 0;
#X connect 20 1 18 0;
#X connect 21 0 36 0;
#X connect 22 0 23 0;
#X connect 23 0 21 0;
#X connect 23 1 21 0;
#X connect 24 0 46 0;
#X connect 27 0 19 1;
#X connect 28 0 29 0;
#X connect 30 0 41 0;
#X connect 31 0 44 0;
#X connect 34 0 14 0;
#X connect 34 0 32 0;
#X connect 35 0 14 0;
#X connect 35 0 32 0;
#X connect 36 0 32 0;
#X connect 36 0 14 0;
#X connect 37 0 38 0;
#X connect 39 0 30 0;
#X connect 40 0 31 0;
#X connect 41 0 42 0;
#X connect 41 1 19 0;
#X connect 42 0 19 0;
#X connect 43 0 42 0;
#X connect 43 0 45 0;
#X connect 44 0 45 0;
#X connect 44 1 22 0;
#X connect 45 0 22 0;
#X connect 46 0 27 0;
#X connect 46 0 22 1;
#X connect 46 1 49 0;
#X connect 47 0 48 0;
#X connect 48 0 37 0;
#X connect 48 0 5 0;
#X connect 48 1 4 0;
#X connect 49 0 32 0;
#X connect 49 0 14 0;
