#N canvas 482 683 1203 638 12;
#X declare -path ../logic;
#X obj 151 76 iterator 1;
#X obj 591 258 s 1_stacca_lega;
#X obj 591 228 tgl 19 0 empty empty empty 0 -10 0 12 #fcfcfc #000000 #000000 0 1;
#X obj 791 178 value time1;
#X obj 790 66 inlet;
#X obj 151 110 route 1 2 3 4 5 6 7 8 9 10 11 12;
#X obj 417 109 r 1_Rtime_ms;
#X obj 790 90 t b f;
#X obj 822 123 / 12;
#X obj 847 92 r 1_iter_N;
#X msg 697 123 send 1_Rtime_ms;
#X floatatom 707 44 5 0 0 0 - - - 0;
#X obj 992 16 declare -path ../logic;
#X obj 151 142 liner~;
#X obj 170 169 liner~;
#X obj 187 196 liner~;
#X obj 205 222 liner~;
#X obj 224 142 liner~;
#X obj 243 169 liner~;
#X obj 260 196 liner~;
#X obj 278 222 liner~;
#X obj 298 142 liner~;
#X obj 317 169 liner~;
#X obj 334 196 liner~;
#X obj 352 222 liner~;
#X obj 162 398 *~;
#X obj 179 426 *~;
#X obj 196 457 *~;
#X obj 213 485 *~;
#X obj 233 398 *~;
#X obj 250 426 *~;
#X obj 267 457 *~;
#X obj 289 485 *~;
#X obj 310 398 *~;
#X obj 327 426 *~;
#X obj 343 457 *~;
#X obj 360 485 *~;
#X obj 164 577 dac~ 1 2 3 4 5 6 7 8 9 10 11 12;
#X obj 567 89 s 1_iter_path;
#X text 794 39 comment;
#N canvas 32 32 1027 306 window 0;
#X obj 28 61 expr~ 0.5*(1-cos($v1*3.14159265359));
#X obj 28 24 inlet~;
#X obj 28 85 outlet~;
#X obj 85 122 expr~ 0.5*(1-cos($v1*3.14159265359));
#X obj 85 85 inlet~;
#X obj 85 146 outlet~;
#X obj 143 185 expr~ 0.5*(1-cos($v1*3.14159265359));
#X obj 143 148 inlet~;
#X obj 143 209 outlet~;
#X obj 200 246 expr~ 0.5*(1-cos($v1*3.14159265359));
#X obj 200 209 inlet~;
#X obj 200 270 outlet~;
#X obj 295 52 expr~ 0.5*(1-cos($v1*3.14159265359));
#X obj 295 15 inlet~;
#X obj 295 76 outlet~;
#X obj 352 113 expr~ 0.5*(1-cos($v1*3.14159265359));
#X obj 352 76 inlet~;
#X obj 352 137 outlet~;
#X obj 410 176 expr~ 0.5*(1-cos($v1*3.14159265359));
#X obj 410 139 inlet~;
#X obj 410 200 outlet~;
#X obj 467 237 expr~ 0.5*(1-cos($v1*3.14159265359));
#X obj 467 200 inlet~;
#X obj 467 261 outlet~;
#X obj 573 53 expr~ 0.5*(1-cos($v1*3.14159265359));
#X obj 573 16 inlet~;
#X obj 573 77 outlet~;
#X obj 630 114 expr~ 0.5*(1-cos($v1*3.14159265359));
#X obj 630 77 inlet~;
#X obj 630 138 outlet~;
#X obj 688 177 expr~ 0.5*(1-cos($v1*3.14159265359));
#X obj 688 140 inlet~;
#X obj 688 201 outlet~;
#X obj 745 238 expr~ 0.5*(1-cos($v1*3.14159265359));
#X obj 745 201 inlet~;
#X obj 745 262 outlet~;
#X connect 0 0 2 0;
#X connect 1 0 0 0;
#X connect 3 0 5 0;
#X connect 4 0 3 0;
#X connect 6 0 8 0;
#X connect 7 0 6 0;
#X connect 9 0 11 0;
#X connect 10 0 9 0;
#X connect 12 0 14 0;
#X connect 13 0 12 0;
#X connect 15 0 17 0;
#X connect 16 0 15 0;
#X connect 18 0 20 0;
#X connect 19 0 18 0;
#X connect 21 0 23 0;
#X connect 22 0 21 0;
#X connect 24 0 26 0;
#X connect 25 0 24 0;
#X connect 27 0 29 0;
#X connect 28 0 27 0;
#X connect 30 0 32 0;
#X connect 31 0 30 0;
#X connect 33 0 35 0;
#X connect 34 0 33 0;
#X restore 151 274 pd window;
#X f 29;
#X obj 567 44 t b l;
#X obj 54 7231 output~;
#X obj 64 7241 output~;
#X obj 74 7251 output~;
#X obj 64 290 noise~;
#X obj 64 314 *~ 0.1;
#X msg 567 20 1 2 4 6 8 7 5 3;
#X connect 0 0 5 0;
#X connect 2 0 1 0;
#X connect 4 0 7 0;
#X connect 5 0 13 0;
#X connect 5 1 14 0;
#X connect 5 2 15 0;
#X connect 5 3 16 0;
#X connect 5 4 17 0;
#X connect 5 5 18 0;
#X connect 5 6 19 0;
#X connect 5 7 20 0;
#X connect 5 8 21 0;
#X connect 5 9 22 0;
#X connect 5 10 23 0;
#X connect 5 11 24 0;
#X connect 6 0 24 1;
#X connect 6 0 23 1;
#X connect 6 0 22 1;
#X connect 6 0 21 1;
#X connect 6 0 17 1;
#X connect 6 0 13 1;
#X connect 6 0 14 1;
#X connect 6 0 15 1;
#X connect 6 0 16 1;
#X connect 6 0 18 1;
#X connect 6 0 20 1;
#X connect 6 0 19 1;
#X connect 7 0 10 0;
#X connect 7 1 8 0;
#X connect 8 0 3 0;
#X connect 9 0 8 1;
#X connect 10 0 3 0;
#X connect 11 0 7 0;
#X connect 13 0 40 0;
#X connect 14 0 40 1;
#X connect 15 0 40 2;
#X connect 16 0 40 3;
#X connect 17 0 40 4;
#X connect 18 0 40 5;
#X connect 19 0 40 6;
#X connect 20 0 40 7;
#X connect 21 0 40 8;
#X connect 22 0 40 9;
#X connect 23 0 40 10;
#X connect 24 0 40 11;
#X connect 25 0 37 0;
#X connect 26 0 37 1;
#X connect 27 0 37 2;
#X connect 28 0 37 3;
#X connect 29 0 37 4;
#X connect 30 0 37 5;
#X connect 31 0 37 6;
#X connect 32 0 37 7;
#X connect 33 0 37 8;
#X connect 34 0 37 9;
#X connect 35 0 37 10;
#X connect 36 0 37 11;
#X connect 40 0 25 1;
#X connect 40 1 26 1;
#X connect 40 2 27 1;
#X connect 40 3 28 1;
#X connect 40 4 29 1;
#X connect 40 5 30 1;
#X connect 40 6 31 1;
#X connect 40 7 32 1;
#X connect 40 8 33 1;
#X connect 40 9 34 1;
#X connect 40 10 35 1;
#X connect 40 11 36 1;
#X connect 41 0 10 0;
#X connect 41 1 38 0;
#X connect 45 0 46 0;
#X connect 46 0 25 0;
#X connect 46 0 26 0;
#X connect 46 0 27 0;
#X connect 46 0 28 0;
#X connect 46 0 29 0;
#X connect 46 0 30 0;
#X connect 46 0 31 0;
#X connect 46 0 32 0;
#X connect 47 0 41 0;
