#N canvas 333 695 796 441 12;
#X obj 187 114 inlet;
#X text 186 87 bang to count;
#X obj 187 197 + 1;
#X obj 187 154 i \$1;
#X obj 485 178 value \$0_max;
#X obj 187 240 mod;
#X obj 377 177 value \$0_min;
#X obj 377 45 loadbang;
#X obj 377 73 i \$1;
#X obj 485 47 loadbang;
#X obj 485 75 i \$2;
#X msg 377 201 set \$1;
#X obj 187 270 sel 0;
#X obj 485 99 sel 0;
#X msg 485 123 2;
#X obj 485 151 t b f;
#X obj 377 149 t b f;
#X msg 187 294 1;
#X obj 395 124 inlet;
#X obj 538 124 inlet;
#X text 394 101 min;
#X text 537 102 max;
#X obj 600 46 loadbang;
#X obj 600 98 sel 0;
#X obj 600 150 t b f;
#X obj 653 123 inlet;
#X msg 600 122 1;
#X text 652 101 step;
#X obj 122 154 outlet;
#X text 18 155 current value;
#X obj 299 368 outlet;
#X text 297 389 bang when max;
#X obj 412 367 outlet;
#X text 410 388 bang when min;
#X obj 600 74 i \$3;
#X obj 600 177 value \$0_step;
#X obj 485 202 + 1;
#X obj 298 330 sel 2;
#X obj 414 331 sel 0;
#X text 13 9 Mattia Pizzato - April 1st 2025;
#X connect 0 0 3 0;
#X connect 2 0 5 0;
#X connect 3 0 2 0;
#X connect 3 0 28 0;
#X connect 3 0 37 0;
#X connect 3 0 38 0;
#X connect 4 0 36 0;
#X connect 4 0 37 1;
#X connect 5 0 12 0;
#X connect 6 0 11 0;
#X connect 6 0 3 1;
#X connect 6 0 38 1;
#X connect 7 0 8 0;
#X connect 8 0 16 0;
#X connect 9 0 10 0;
#X connect 10 0 13 0;
#X connect 11 0 17 0;
#X connect 12 0 17 0;
#X connect 12 1 3 1;
#X connect 13 0 14 0;
#X connect 13 1 15 0;
#X connect 14 0 15 0;
#X connect 15 0 4 0;
#X connect 15 1 4 0;
#X connect 16 0 6 0;
#X connect 16 1 6 0;
#X connect 17 0 3 1;
#X connect 18 0 16 0;
#X connect 19 0 15 0;
#X connect 22 0 34 0;
#X connect 23 0 26 0;
#X connect 23 1 24 0;
#X connect 24 0 35 0;
#X connect 24 1 35 0;
#X connect 25 0 24 0;
#X connect 26 0 24 0;
#X connect 34 0 23 0;
#X connect 35 0 2 1;
#X connect 36 0 5 1;
#X connect 37 0 30 0;
#X connect 38 0 32 0;
