#N canvas 534 127 228 170 12;
#X obj 59 38 inlet;
#X obj 16 67 list append;
#X msg 17 92 \$2 \$1;
#X obj 16 117 route 1;
#X obj 16 142 outlet;
#X obj 14 8 inlet;
#X text 56 10 open (1) / close (0);
#X obj 113 40 loadbang;
#X msg 113 64 0;
#X connect 0 0 1 0;
#X connect 1 0 2 0;
#X connect 2 0 3 0;
#X connect 3 0 4 0;
#X connect 5 0 1 1;
#X connect 7 0 8 0;
#X connect 8 0 1 1;
