#N canvas 1171 254 302 190 12;
#X obj 8 99 list trim;
#X obj 8 127 line~ 0;
#X obj 8 47 inlet;
#X obj 8 151 outlet~;
#X obj 73 44 inlet;
#X obj 8 75 list append 1000;
#X obj 116 13 loadbang;
#X obj 117 43 expr if(\$1==0 \, 1000 \, \$1);
#X connect 0 0 1 0;
#X connect 1 0 3 0;
#X connect 2 0 5 0;
#X connect 4 0 5 1;
#X connect 5 0 0 0;
#X connect 6 0 7 0;
#X connect 7 0 5 1;
