#N canvas 209 233 199 385 12;
#X obj 22 80 list length;
#X obj 22 165 f, f 6;
#X obj 22 133 until;
#X obj 22 205 + 1;
#X obj 22 104 t f b;
#X msg 66 133 -1;
#X msg 65 264 get \$1;
#X obj 99 35 t a a;
#X obj 65 293 list store;
#X obj 20 320 pack f f;
#X obj 21 234 t f f;
#X obj 20 344 outlet;
#X obj 99 11 inlet;
#X text 150 13 list;
#X text 73 345 index item;
#X connect 0 0 4 0;
#X connect 1 0 3 0;
#X connect 2 0 1 0;
#X connect 3 0 1 1;
#X connect 3 0 10 0;
#X connect 4 0 2 0;
#X connect 4 1 5 0;
#X connect 5 0 1 1;
#X connect 6 0 8 0;
#X connect 7 0 0 0;
#X connect 7 1 8 1;
#X connect 8 0 9 1;
#X connect 9 0 11 0;
#X connect 10 0 9 0;
#X connect 10 1 6 0;
#X connect 12 0 7 0;
