#N canvas 1472 946 450 300 12;
#X obj 118 6 inlet;
#X floatatom 118 30 5 0 0 0 - - - 0;
#X obj 114 115 expr 1000./$f1;
#X floatatom 114 139 5 0 0 0 - - - 0;
#X obj 114 162 phasor~;
#X obj 113 223 bonk~;
#X obj 113 247 t b;
#X obj 113 271 outlet;
#X obj 118 53 sel 0;
#X obj 95 191 *~;
#X msg 9 136 0;
#X obj 117 82 t b f;
#X msg 53 136 1;
#X connect 0 0 1 0;
#X connect 1 0 8 0;
#X connect 2 0 3 0;
#X connect 3 0 4 0;
#X connect 4 0 9 1;
#X connect 5 0 6 0;
#X connect 6 0 7 0;
#X connect 8 0 10 0;
#X connect 8 1 11 0;
#X connect 9 0 5 0;
#X connect 10 0 9 0;
#X connect 11 0 12 0;
#X connect 11 1 2 0;
#X connect 12 0 9 0;
