#N canvas 4 64 2560 1486 12;
#X msg 467 567 set \$1;
#X obj 447 651 cnv 19 350 248 empty empty OUTPUT 175 12 0 10 #feffc6 #404040 0;
#X obj 730 779 vu 20 80 empty o12 -1 -10 0 8 #404040 #000000 1 0;
#X obj 682 779 vu 20 80 empty o10 -1 -10 0 8 #404040 #000000 0 0;
#X obj 706 779 vu 20 80 empty o11 -1 -10 0 8 #404040 #000000 0 0;
#X obj 634 779 vu 20 80 empty o8 -1 -10 0 8 #404040 #000000 0 0;
#X obj 658 779 vu 20 80 empty o9 -1 -10 0 8 #404040 #000000 0 0;
#X obj 586 779 vu 20 80 empty o6 -1 -10 0 8 #404040 #000000 0 0;
#X obj 610 779 vu 20 80 empty o7 -1 -10 0 8 #404040 #000000 0 0;
#X obj 538 779 vu 20 80 empty o4 -1 -10 0 8 #404040 #000000 0 0;
#X obj 562 779 vu 20 80 empty o5 -1 -10 0 8 #404040 #000000 0 0;
#X obj 489 779 vu 20 80 empty o2 -1 -10 0 8 #404040 #000000 0 0;
#X obj 513 779 vu 20 80 empty o3 -1 -10 0 8 #404040 #000000 0 0;
#X obj 465 779 vu 20 80 empty o1 -1 -10 0 8 #404040 #000000 0 0;
#X obj 465 687 vsl 20 60 0 127 0 0 empty empty Vol1 0 -9 0 8 #ffc7c6 #000000 #000000 0 1;
#X obj 489 687 vsl 20 60 0 127 0 0 empty empty vol2 0 -9 0 8 #ffe3c6 #000000 #000000 0 1;
#X obj 514 687 vsl 20 60 0 127 0 0 empty empty vol3 0 -9 0 8 #ffc7c6 #000000 #000000 0 1;
#X obj 538 687 vsl 20 60 0 127 0 0 empty empty vol4 0 -9 0 8 #ffe3c6 #000000 #000000 0 1;
#X obj 562 687 vsl 20 60 0 127 0 0 empty empty vol5 0 -9 0 8 #ffc7c6 #000000 #000000 0 1;
#X obj 586 687 vsl 20 60 0 127 0 0 empty empty vol6 0 -9 0 8 #ffe3c6 #000000 #000000 0 1;
#X obj 610 687 vsl 20 60 0 127 0 0 empty empty vol7 0 -9 0 8 #ffc7c6 #000000 #000000 0 1;
#X obj 635 687 vsl 20 60 0 127 0 0 empty empty vol8 0 -9 0 8 #ffe3c6 #000000 #000000 0 1;
#X obj 660 687 vsl 20 60 0 127 0 0 empty empty vol9 0 -9 0 8 #ffc7c6 #000000 #000000 0 1;
#X obj 683 687 vsl 20 60 0 127 0 0 empty empty vol10 0 -9 0 8 #ffe3c6 #000000 #000000 0 1;
#X obj 707 688 vsl 20 60 0 127 0 0 empty empty vol11 0 -9 0 8 #ffc7c6 #000000 #000000 0 1;
#X obj 730 688 vsl 20 60 0 127 0 0 empty empty vol12 0 -9 0 8 #ffe3c6 #000000 #000000 0 1;
#X obj 957 597 dac~ 0, f 3;
#X floatatom 465 876 4 0 0 0 - - - 8;
#X msg 957 638 set \$1;
#X floatatom 489 876 4 0 0 0 - - - 8;
#X msg 991 665 set \$1;
#X floatatom 513 876 4 0 0 0 - - - 8;
#X msg 1021 688 set \$1;
#X floatatom 539 876 4 0 0 0 - - - 8;
#X msg 1050 636 set \$1;
#X floatatom 563 876 4 0 0 0 - - - 8;
#X msg 1086 661 set \$1;
#X floatatom 587 876 4 0 0 0 - - - 8;
#X msg 1109 688 set \$1;
#X floatatom 611 876 4 0 0 0 - - - 8;
#X msg 1146 633 set \$1;
#X floatatom 635 876 4 0 0 0 - - - 8;
#X msg 1180 658 set \$1;
#X floatatom 659 876 4 0 0 0 - - - 8;
#X msg 1210 682 set \$1;
#X floatatom 683 876 4 0 0 0 - - - 8;
#X msg 1240 631 set \$1;
#X floatatom 708 876 4 0 0 0 - - - 8;
#X msg 1275 653 set \$1;
#X floatatom 732 877 4 0 0 0 - - - 8;
#X msg 1290 680 set \$1;
#X obj 509 327 unpack f f f f f f f f f f f f;
#X text 464 858 soundcard output channels;
#X obj 764 714 tgl 19 0 empty empty link 0 -10 0 8 #ff8300 #000000 #000000 0 1;
#X obj 97 651 cnv 19 350 248 empty empty INPUT 175 12 0 10 #c6feff #404040 0;
#X obj 396 776 vu 20 80 empty o12 -1 -10 0 8 #404040 #000000 1 0;
#X obj 348 776 vu 20 80 empty o10 -1 -10 0 8 #404040 #000000 0 0;
#X obj 372 776 vu 20 80 empty o11 -1 -10 0 8 #404040 #000000 0 0;
#X obj 300 776 vu 20 80 empty o8 -1 -10 0 8 #404040 #000000 0 0;
#X obj 324 776 vu 20 80 empty o9 -1 -10 0 8 #404040 #000000 0 0;
#X obj 252 776 vu 20 80 empty o6 -1 -10 0 8 #404040 #000000 0 0;
#X obj 276 776 vu 20 80 empty o7 -1 -10 0 8 #404040 #000000 0 0;
#X obj 204 776 vu 20 80 empty o4 -1 -10 0 8 #404040 #000000 0 0;
#X obj 228 776 vu 20 80 empty o5 -1 -10 0 8 #404040 #000000 0 0;
#X obj 155 776 vu 20 80 empty o2 -1 -10 0 8 #404040 #000000 0 0;
#X obj 179 776 vu 20 80 empty o3 -1 -10 0 8 #404040 #000000 0 0;
#X obj 131 776 vu 20 80 empty o1 -1 -10 0 8 #404040 #000000 0 0;
#X obj 131 684 vsl 20 60 0 127 0 0 empty empty Vol1 0 -9 0 8 #ffc7c6 #000000 #000000 0 1;
#X obj 155 684 vsl 20 60 0 127 0 0 empty empty vol2 0 -9 0 8 #ffe3c6 #000000 #000000 0 1;
#X obj 180 684 vsl 20 60 0 127 0 0 empty empty vol3 0 -9 0 8 #ffc7c6 #000000 #000000 0 1;
#X obj 204 684 vsl 20 60 0 127 0 0 empty empty vol4 0 -9 0 8 #ffe3c6 #000000 #000000 0 1;
#X obj 228 684 vsl 20 60 0 127 0 0 empty empty vol5 0 -9 0 8 #ffc7c6 #000000 #000000 0 1;
#X obj 252 684 vsl 20 60 0 127 0 0 empty empty vol6 0 -9 0 8 #ffe3c6 #000000 #000000 0 1;
#X obj 276 684 vsl 20 60 0 127 0 0 empty empty vol7 0 -9 0 8 #ffc7c6 #000000 #000000 0 1;
#X obj 301 684 vsl 20 60 0 127 0 0 empty empty vol8 0 -9 0 8 #ffe3c6 #000000 #000000 0 1;
#X obj 326 684 vsl 20 60 0 127 0 0 empty empty vol9 0 -9 0 8 #ffc7c6 #000000 #000000 0 1;
#X obj 349 684 vsl 20 60 0 127 0 0 empty empty vol10 0 -9 0 8 #ffe3c6 #000000 #000000 0 1;
#X obj 373 685 vsl 20 60 0 127 0 0 empty empty vol11 0 -9 0 8 #ffc7c6 #000000 #000000 0 1;
#X obj 396 685 vsl 20 60 0 127 0 0 empty empty vol12 0 -9 0 8 #ffe3c6 #000000 #000000 0 1;
#X floatatom 131 873 4 0 0 0 - - - 8;
#X floatatom 155 873 4 0 0 0 - - - 8;
#X floatatom 179 873 4 0 0 0 - - - 8;
#X floatatom 205 873 4 0 0 0 - - - 8;
#X floatatom 229 873 4 0 0 0 - - - 8;
#X floatatom 253 873 4 0 0 0 - - - 8;
#X floatatom 277 873 4 0 0 0 - - - 8;
#X floatatom 301 873 4 0 0 0 - - - 8;
#X floatatom 325 873 4 0 0 0 - - - 8;
#X floatatom 349 873 4 0 0 0 - - - 8;
#X floatatom 374 873 4 0 0 0 - - - 8;
#X floatatom 398 874 4 0 0 0 - - - 8;
#X text 130 855 soundcard output channels;
#X obj 38 1306 adc~ 0, f 3;
#X obj 937 175 catch~ io-output 12;
#X obj 937 202 snake~ out 12, f 51;
#X obj 955 262 u.liner~ 10;
#X obj 937 290 *~;
#X obj 990 316 u.liner~ 10;
#X obj 972 344 *~;
#X obj 1018 381 u.liner~ 10;
#X obj 1000 409 *~;
#X obj 1054 437 u.liner~ 10;
#X obj 1036 465 *~;
#X obj 1085 488 u.liner~ 10;
#X obj 1067 516 *~;
#X obj 1117 258 u.liner~ 10;
#X obj 1099 286 *~;
#X obj 1149 313 u.liner~ 10;
#X obj 1131 341 *~;
#X obj 1182 363 u.liner~ 10;
#X obj 1164 390 *~;
#X obj 1213 424 u.liner~ 10;
#X obj 1195 452 *~;
#X obj 1247 489 u.liner~ 10;
#X obj 1229 517 *~;
#X obj 1276 257 u.liner~ 10;
#X obj 1258 285 *~;
#X obj 1311 309 u.liner~ 10;
#X obj 1293 337 *~;
#X obj 467 510 receive io-olevel;
#X obj 467 540 route 1 2 3 4 5 6 7 8 9 10 11 12, f 42;
#X msg 491 592 set \$1;
#X msg 514 620 set \$1;
#X msg 538 566 set \$1;
#X msg 562 591 set \$1;
#X msg 585 619 set \$1;
#X msg 612 565 set \$1;
#X msg 636 590 set \$1;
#X msg 659 618 set \$1;
#X msg 684 565 set \$1;
#X msg 708 590 set \$1;
#X msg 731 618 set \$1;
#X obj 999 923 send io-olevel;
#X msg 999 896 1 \$1;
#X obj 1023 980 send io-olevel;
#X obj 1051 1039 send io-olevel;
#X obj 1077 1093 send io-olevel;
#X obj 1102 1151 send io-olevel;
#X obj 1117 925 send io-olevel;
#X obj 1145 984 send io-olevel;
#X obj 1171 1038 send io-olevel;
#X obj 1198 1089 send io-olevel;
#X obj 1225 1151 send io-olevel;
#X obj 1241 925 send io-olevel;
#X obj 1261 984 send io-olevel;
#X obj 955 234 / 127;
#X obj 991 288 / 127;
#X obj 1018 353 / 127;
#X obj 1054 409 / 127;
#X obj 1085 460 / 127;
#X obj 1117 230 / 127;
#X obj 1149 285 / 127;
#X obj 1183 338 / 127;
#X obj 1213 396 / 127;
#X obj 1248 461 / 127;
#X obj 1277 230 / 127;
#X obj 1311 281 / 127;
#X obj 956 142 route 1 2 3 4 5 6 7 8 9 10 11 12, f 56;
#X obj 955 113 receive io-olevel;
#N canvas 807 1452 450 283 env 0;
#X obj 9 30 env~ 1024;
#X obj 10 78 outlet;
#X obj 10 6 inlet~;
#X obj 66 80 outlet~;
#X obj 10 54 - 100;
#X connect 0 0 4 0;
#X connect 2 0 0 0;
#X connect 2 0 3 0;
#X connect 4 0 1 0;
#X restore 937 317 pd env;
#X f 3;
#N canvas 576 340 450 300 env 0;
#X obj 10 30 env~ 1024;
#X obj 10 78 outlet;
#X obj 10 6 inlet~;
#X obj 66 80 outlet~;
#X obj 10 54 - 100;
#X connect 0 0 4 0;
#X connect 2 0 0 0;
#X connect 2 0 3 0;
#X connect 4 0 1 0;
#X restore 972 368 pd env;
#X f 3;
#N canvas 576 340 450 300 env 0;
#X obj 10 30 env~ 1024;
#X obj 10 78 outlet;
#X obj 10 6 inlet~;
#X obj 66 80 outlet~;
#X obj 10 54 - 100;
#X connect 0 0 4 0;
#X connect 2 0 0 0;
#X connect 2 0 3 0;
#X connect 4 0 1 0;
#X restore 1000 433 pd env;
#X f 3;
#N canvas 548 244 450 300 env 0;
#X obj 10 30 env~ 1024;
#X obj 10 78 outlet;
#X obj 10 6 inlet~;
#X obj 66 80 outlet~;
#X obj 10 54 - 100;
#X connect 0 0 4 0;
#X connect 2 0 0 0;
#X connect 2 0 3 0;
#X connect 4 0 1 0;
#X restore 1035 489 pd env;
#X f 3;
#N canvas 576 340 450 300 env 0;
#X obj 10 30 env~ 1024;
#X obj 10 78 outlet;
#X obj 10 6 inlet~;
#X obj 66 80 outlet~;
#X obj 10 54 - 100;
#X connect 0 0 4 0;
#X connect 2 0 0 0;
#X connect 2 0 3 0;
#X connect 4 0 1 0;
#X restore 1067 541 pd env;
#X f 3;
#N canvas 576 340 450 300 env 0;
#X obj 10 30 env~ 1024;
#X obj 10 78 outlet;
#X obj 10 6 inlet~;
#X obj 66 80 outlet~;
#X obj 10 54 - 100;
#X connect 0 0 4 0;
#X connect 2 0 0 0;
#X connect 2 0 3 0;
#X connect 4 0 1 0;
#X restore 1100 314 pd env;
#X f 3;
#N canvas 576 340 450 300 env 0;
#X obj 10 30 env~ 1024;
#X obj 10 78 outlet;
#X obj 10 6 inlet~;
#X obj 66 80 outlet~;
#X obj 10 54 - 100;
#X connect 0 0 4 0;
#X connect 2 0 0 0;
#X connect 2 0 3 0;
#X connect 4 0 1 0;
#X restore 1132 365 pd env;
#X f 3;
#N canvas 576 340 450 300 env 0;
#X obj 10 30 env~ 1024;
#X obj 10 78 outlet;
#X obj 10 6 inlet~;
#X obj 66 80 outlet~;
#X obj 10 54 - 100;
#X connect 0 0 4 0;
#X connect 2 0 0 0;
#X connect 2 0 3 0;
#X connect 4 0 1 0;
#X restore 1164 414 pd env;
#X f 3;
#N canvas 576 340 450 300 env 0;
#X obj 10 30 env~ 1024;
#X obj 10 78 outlet;
#X obj 10 6 inlet~;
#X obj 66 80 outlet~;
#X obj 10 54 - 100;
#X connect 0 0 4 0;
#X connect 2 0 0 0;
#X connect 2 0 3 0;
#X connect 4 0 1 0;
#X restore 1195 477 pd env;
#X f 3;
#N canvas 576 340 450 300 env 0;
#X obj 10 30 env~ 1024;
#X obj 10 78 outlet;
#X obj 10 6 inlet~;
#X obj 66 80 outlet~;
#X obj 10 54 - 100;
#X connect 0 0 4 0;
#X connect 2 0 0 0;
#X connect 2 0 3 0;
#X connect 4 0 1 0;
#X restore 1229 542 pd env;
#X f 3;
#N canvas 576 340 450 300 env 0;
#X obj 10 30 env~ 1024;
#X obj 10 78 outlet;
#X obj 10 6 inlet~;
#X obj 66 80 outlet~;
#X obj 10 54 - 100;
#X connect 0 0 4 0;
#X connect 2 0 0 0;
#X connect 2 0 3 0;
#X connect 4 0 1 0;
#X restore 1260 310 pd env;
#X f 3;
#N canvas 576 340 450 300 env 0;
#X obj 10 30 env~ 1024;
#X obj 10 78 outlet;
#X obj 10 6 inlet~;
#X obj 66 80 outlet~;
#X obj 10 54 - 100;
#X connect 0 0 4 0;
#X connect 2 0 0 0;
#X connect 2 0 3 0;
#X connect 4 0 1 0;
#X restore 1294 361 pd env;
#X f 3;
#X obj 991 596 dac~ 0, f 3;
#X obj 1020 596 dac~ 0, f 3;
#X obj 1051 596 dac~ 0, f 3;
#X obj 1085 595 dac~ 0, f 3;
#X obj 1114 595 dac~ 0, f 3;
#X obj 1146 595 dac~ 0, f 3;
#X obj 1180 594 dac~ 0, f 3;
#X obj 1209 594 dac~ 0, f 3;
#X obj 1240 594 dac~ 0, f 3;
#X obj 1274 593 dac~ 0, f 3;
#X obj 1303 593 dac~ 0, f 3;
#X obj 509 303 r io-ochannels;
#X msg 1023 953 2 \$1;
#X msg 1051 1012 3 \$1;
#X msg 1077 1066 4 \$1;
#X msg 1102 1124 5 \$1;
#X msg 1117 898 6 \$1;
#X msg 1145 957 7 \$1;
#X msg 1171 1011 8 \$1;
#X msg 1198 1062 9 \$1;
#X msg 1225 1124 10 \$1;
#X msg 1241 898 11 \$1;
#X msg 1261 957 12 \$1;
#X obj 156 253 unpack f f f f f f f f f f f f;
#X obj 156 229 r io-ichannels;
#X msg 35 1218 set \$1;
#X msg 75 1251 set \$1;
#X msg 103 1278 set \$1;
#X msg 135 1218 set \$1;
#X msg 171 1251 set \$1;
#X msg 199 1278 set \$1;
#X msg 232 1218 set \$1;
#X msg 265 1251 set \$1;
#X msg 298 1278 set \$1;
#X msg 367 1251 set \$1;
#X msg 393 1278 set \$1;
#X msg 324 1218 set \$1;
#X obj 74 1306 adc~ 0, f 3;
#X obj 103 1306 adc~ 0, f 3;
#X obj 137 1306 adc~ 0, f 3;
#X obj 168 1306 adc~ 0, f 3;
#X obj 199 1306 adc~ 0, f 3;
#X obj 235 1306 adc~ 0, f 3;
#X obj 263 1306 adc~ 0, f 3;
#X obj 298 1306 adc~ 0, f 3;
#X obj 330 1306 adc~ 0, f 3;
#X obj 360 1306 adc~ 0, f 3;
#X obj 393 1306 adc~ 0, f 3;
#X msg 502 941 1 \$1;
#X msg 526 998 2 \$1;
#X msg 554 1057 3 \$1;
#X msg 580 1111 4 \$1;
#X msg 605 1169 5 \$1;
#X msg 620 943 6 \$1;
#X msg 648 1002 7 \$1;
#X msg 674 1056 8 \$1;
#X msg 701 1107 9 \$1;
#X msg 728 1169 10 \$1;
#X msg 744 943 11 \$1;
#X msg 764 1002 12 \$1;
#X obj 502 968 send io-ilevel;
#X obj 526 1025 send io-ilevel;
#X obj 554 1084 send io-ilevel;
#X obj 580 1138 send io-ilevel;
#X obj 605 1195 send io-ilevel;
#X obj 620 970 send io-ilevel;
#X obj 648 1029 send io-ilevel;
#X obj 674 1083 send io-ilevel;
#X obj 701 1134 send io-ilevel;
#X obj 728 1196 send io-ilevel;
#X obj 744 970 send io-ilevel;
#X obj 764 1029 send io-ilevel;
#X obj 26 1852 snake~ in 12, f 93;
#X obj 25 1875 throw~ io-input 12;
#X obj 57 1518 u.liner~ 10;
#X obj 39 1546 *~;
#X obj 92 1572 u.liner~ 10;
#X obj 74 1600 *~;
#X obj 120 1637 u.liner~ 10;
#X obj 102 1665 *~;
#X obj 156 1693 u.liner~ 10;
#X obj 138 1721 *~;
#X obj 187 1744 u.liner~ 10;
#X obj 169 1772 *~;
#X obj 219 1514 u.liner~ 10;
#X obj 201 1542 *~;
#X obj 251 1569 u.liner~ 10;
#X obj 233 1597 *~;
#X obj 284 1619 u.liner~ 10;
#X obj 266 1646 *~;
#X obj 315 1680 u.liner~ 10;
#X obj 297 1708 *~;
#X obj 349 1745 u.liner~ 10;
#X obj 331 1773 *~;
#X obj 378 1513 u.liner~ 10;
#X obj 360 1541 *~;
#X obj 413 1565 u.liner~ 10;
#X obj 395 1593 *~;
#X obj 57 1490 / 127;
#X obj 93 1544 / 127;
#X obj 120 1609 / 127;
#X obj 156 1665 / 127;
#X obj 187 1716 / 127;
#X obj 219 1486 / 127;
#X obj 251 1541 / 127;
#X obj 285 1594 / 127;
#X obj 315 1652 / 127;
#X obj 350 1717 / 127;
#X obj 379 1486 / 127;
#X obj 413 1537 / 127;
#X obj 58 1398 route 1 2 3 4 5 6 7 8 9 10 11 12, f 56;
#N canvas 807 1452 450 283 env 0;
#X obj 9 30 env~ 1024;
#X obj 10 78 outlet;
#X obj 10 6 inlet~;
#X obj 66 80 outlet~;
#X obj 10 54 - 100;
#X connect 0 0 4 0;
#X connect 2 0 0 0;
#X connect 2 0 3 0;
#X connect 4 0 1 0;
#X restore 39 1573 pd env;
#X f 3;
#N canvas 576 340 450 300 env 0;
#X obj 10 30 env~ 1024;
#X obj 10 78 outlet;
#X obj 10 6 inlet~;
#X obj 66 80 outlet~;
#X obj 10 54 - 100;
#X connect 0 0 4 0;
#X connect 2 0 0 0;
#X connect 2 0 3 0;
#X connect 4 0 1 0;
#X restore 74 1624 pd env;
#X f 3;
#N canvas 576 340 450 300 env 0;
#X obj 10 30 env~ 1024;
#X obj 10 78 outlet;
#X obj 10 6 inlet~;
#X obj 66 80 outlet~;
#X obj 10 54 - 100;
#X connect 0 0 4 0;
#X connect 2 0 0 0;
#X connect 2 0 3 0;
#X connect 4 0 1 0;
#X restore 102 1689 pd env;
#X f 3;
#N canvas 548 244 450 300 env 0;
#X obj 10 30 env~ 1024;
#X obj 10 78 outlet;
#X obj 10 6 inlet~;
#X obj 66 80 outlet~;
#X obj 10 54 - 100;
#X connect 0 0 4 0;
#X connect 2 0 0 0;
#X connect 2 0 3 0;
#X connect 4 0 1 0;
#X restore 137 1745 pd env;
#X f 3;
#N canvas 576 340 450 300 env 0;
#X obj 10 30 env~ 1024;
#X obj 10 78 outlet;
#X obj 10 6 inlet~;
#X obj 66 80 outlet~;
#X obj 10 54 - 100;
#X connect 0 0 4 0;
#X connect 2 0 0 0;
#X connect 2 0 3 0;
#X connect 4 0 1 0;
#X restore 169 1797 pd env;
#X f 3;
#N canvas 576 340 450 300 env 0;
#X obj 10 30 env~ 1024;
#X obj 10 78 outlet;
#X obj 10 6 inlet~;
#X obj 66 80 outlet~;
#X obj 10 54 - 100;
#X connect 0 0 4 0;
#X connect 2 0 0 0;
#X connect 2 0 3 0;
#X connect 4 0 1 0;
#X restore 202 1570 pd env;
#X f 3;
#N canvas 576 340 450 300 env 0;
#X obj 10 30 env~ 1024;
#X obj 10 78 outlet;
#X obj 10 6 inlet~;
#X obj 66 80 outlet~;
#X obj 10 54 - 100;
#X connect 0 0 4 0;
#X connect 2 0 0 0;
#X connect 2 0 3 0;
#X connect 4 0 1 0;
#X restore 234 1621 pd env;
#X f 3;
#N canvas 576 340 450 300 env 0;
#X obj 10 30 env~ 1024;
#X obj 10 78 outlet;
#X obj 10 6 inlet~;
#X obj 66 80 outlet~;
#X obj 10 54 - 100;
#X connect 0 0 4 0;
#X connect 2 0 0 0;
#X connect 2 0 3 0;
#X connect 4 0 1 0;
#X restore 266 1670 pd env;
#X f 3;
#N canvas 576 340 450 300 env 0;
#X obj 10 30 env~ 1024;
#X obj 10 78 outlet;
#X obj 10 6 inlet~;
#X obj 66 80 outlet~;
#X obj 10 54 - 100;
#X connect 0 0 4 0;
#X connect 2 0 0 0;
#X connect 2 0 3 0;
#X connect 4 0 1 0;
#X restore 297 1733 pd env;
#X f 3;
#N canvas 576 340 450 300 env 0;
#X obj 10 30 env~ 1024;
#X obj 10 78 outlet;
#X obj 10 6 inlet~;
#X obj 66 80 outlet~;
#X obj 10 54 - 100;
#X connect 0 0 4 0;
#X connect 2 0 0 0;
#X connect 2 0 3 0;
#X connect 4 0 1 0;
#X restore 331 1798 pd env;
#X f 3;
#N canvas 576 340 450 300 env 0;
#X obj 10 30 env~ 1024;
#X obj 10 78 outlet;
#X obj 10 6 inlet~;
#X obj 66 80 outlet~;
#X obj 10 54 - 100;
#X connect 0 0 4 0;
#X connect 2 0 0 0;
#X connect 2 0 3 0;
#X connect 4 0 1 0;
#X restore 362 1566 pd env;
#X f 3;
#N canvas 576 340 450 300 env 0;
#X obj 10 30 env~ 1024;
#X obj 10 78 outlet;
#X obj 10 6 inlet~;
#X obj 66 80 outlet~;
#X obj 10 54 - 100;
#X connect 0 0 4 0;
#X connect 2 0 0 0;
#X connect 2 0 3 0;
#X connect 4 0 1 0;
#X restore 396 1617 pd env;
#X f 3;
#X obj 57 1369 receive io-ilevel;
#X msg 106 536 set \$1;
#X obj 106 509 route 1 2 3 4 5 6 7 8 9 10 11 12, f 42;
#X msg 130 561 set \$1;
#X msg 153 589 set \$1;
#X msg 177 535 set \$1;
#X msg 201 560 set \$1;
#X msg 224 588 set \$1;
#X msg 251 534 set \$1;
#X msg 275 559 set \$1;
#X msg 298 587 set \$1;
#X msg 323 534 set \$1;
#X msg 347 559 set \$1;
#X msg 370 587 set \$1;
#X obj 106 479 receive io-ilevel;
#X connect 0 0 14 0;
#X connect 14 0 133 0;
#X connect 15 0 183 0;
#X connect 16 0 184 0;
#X connect 17 0 185 0;
#X connect 18 0 186 0;
#X connect 19 0 187 0;
#X connect 20 0 188 0;
#X connect 21 0 189 0;
#X connect 22 0 190 0;
#X connect 23 0 191 0;
#X connect 24 0 192 0;
#X connect 25 0 193 0;
#X connect 27 0 28 0;
#X connect 28 0 26 0;
#X connect 29 0 30 0;
#X connect 30 0 171 0;
#X connect 31 0 32 0;
#X connect 32 0 172 0;
#X connect 33 0 34 0;
#X connect 34 0 173 0;
#X connect 35 0 36 0;
#X connect 36 0 174 0;
#X connect 37 0 38 0;
#X connect 38 0 175 0;
#X connect 39 0 40 0;
#X connect 40 0 176 0;
#X connect 41 0 42 0;
#X connect 42 0 177 0;
#X connect 43 0 44 0;
#X connect 44 0 178 0;
#X connect 45 0 46 0;
#X connect 46 0 179 0;
#X connect 47 0 48 0;
#X connect 48 0 180 0;
#X connect 49 0 50 0;
#X connect 50 0 181 0;
#X connect 51 0 27 0;
#X connect 51 1 29 0;
#X connect 51 2 31 0;
#X connect 51 3 33 0;
#X connect 51 4 35 0;
#X connect 51 5 37 0;
#X connect 51 6 39 0;
#X connect 51 7 41 0;
#X connect 51 8 43 0;
#X connect 51 9 45 0;
#X connect 51 10 47 0;
#X connect 51 11 49 0;
#X connect 67 0 219 0;
#X connect 68 0 220 0;
#X connect 69 0 221 0;
#X connect 70 0 222 0;
#X connect 71 0 223 0;
#X connect 72 0 224 0;
#X connect 73 0 225 0;
#X connect 74 0 226 0;
#X connect 75 0 227 0;
#X connect 76 0 228 0;
#X connect 77 0 229 0;
#X connect 78 0 230 0;
#X connect 79 0 196 0;
#X connect 80 0 197 0;
#X connect 81 0 198 0;
#X connect 82 0 199 0;
#X connect 83 0 200 0;
#X connect 84 0 201 0;
#X connect 85 0 202 0;
#X connect 86 0 203 0;
#X connect 87 0 204 0;
#X connect 88 0 207 0;
#X connect 89 0 205 0;
#X connect 90 0 206 0;
#X connect 92 0 246 0;
#X connect 93 0 94 0;
#X connect 94 0 96 0;
#X connect 94 1 98 0;
#X connect 94 2 100 0;
#X connect 94 3 102 0;
#X connect 94 4 104 0;
#X connect 94 5 106 0;
#X connect 94 6 108 0;
#X connect 94 7 110 0;
#X connect 94 8 112 0;
#X connect 94 9 114 0;
#X connect 94 10 116 0;
#X connect 94 11 118 0;
#X connect 95 0 96 1;
#X connect 96 0 159 0;
#X connect 97 0 98 1;
#X connect 98 0 160 0;
#X connect 99 0 100 1;
#X connect 100 0 161 0;
#X connect 101 0 102 1;
#X connect 102 0 162 0;
#X connect 103 0 104 1;
#X connect 104 0 163 0;
#X connect 105 0 106 1;
#X connect 106 0 164 0;
#X connect 107 0 108 1;
#X connect 108 0 165 0;
#X connect 109 0 110 1;
#X connect 110 0 166 0;
#X connect 111 0 112 1;
#X connect 112 0 167 0;
#X connect 113 0 114 1;
#X connect 114 0 168 0;
#X connect 115 0 116 1;
#X connect 116 0 169 0;
#X connect 117 0 118 1;
#X connect 118 0 170 0;
#X connect 119 0 120 0;
#X connect 120 0 0 0;
#X connect 120 1 121 0;
#X connect 120 2 122 0;
#X connect 120 3 123 0;
#X connect 120 4 124 0;
#X connect 120 5 125 0;
#X connect 120 6 126 0;
#X connect 120 7 127 0;
#X connect 120 8 128 0;
#X connect 120 9 129 0;
#X connect 120 10 130 0;
#X connect 120 11 131 0;
#X connect 121 0 15 0;
#X connect 122 0 16 0;
#X connect 123 0 17 0;
#X connect 124 0 18 0;
#X connect 125 0 19 0;
#X connect 126 0 20 0;
#X connect 127 0 21 0;
#X connect 128 0 22 0;
#X connect 129 0 23 0;
#X connect 130 0 24 0;
#X connect 131 0 25 0;
#X connect 133 0 132 0;
#X connect 145 0 95 0;
#X connect 146 0 97 0;
#X connect 147 0 99 0;
#X connect 148 0 101 0;
#X connect 149 0 103 0;
#X connect 150 0 105 0;
#X connect 151 0 107 0;
#X connect 152 0 109 0;
#X connect 153 0 111 0;
#X connect 154 0 113 0;
#X connect 155 0 115 0;
#X connect 156 0 117 0;
#X connect 157 0 145 0;
#X connect 157 1 146 0;
#X connect 157 2 147 0;
#X connect 157 3 148 0;
#X connect 157 4 149 0;
#X connect 157 5 150 0;
#X connect 157 6 151 0;
#X connect 157 7 152 0;
#X connect 157 8 153 0;
#X connect 157 9 154 0;
#X connect 157 10 155 0;
#X connect 157 11 156 0;
#X connect 158 0 157 0;
#X connect 159 0 13 0;
#X connect 159 1 26 0;
#X connect 160 0 11 0;
#X connect 160 1 171 0;
#X connect 161 0 12 0;
#X connect 161 1 172 0;
#X connect 162 0 9 0;
#X connect 162 1 173 0;
#X connect 163 0 10 0;
#X connect 163 1 174 0;
#X connect 164 0 7 0;
#X connect 164 1 175 0;
#X connect 165 0 8 0;
#X connect 165 1 176 0;
#X connect 166 0 5 0;
#X connect 166 1 177 0;
#X connect 167 0 6 0;
#X connect 167 1 178 0;
#X connect 168 0 3 0;
#X connect 168 1 179 0;
#X connect 169 0 4 0;
#X connect 169 1 180 0;
#X connect 170 0 2 0;
#X connect 170 1 181 0;
#X connect 182 0 51 0;
#X connect 183 0 134 0;
#X connect 184 0 135 0;
#X connect 185 0 136 0;
#X connect 186 0 137 0;
#X connect 187 0 138 0;
#X connect 188 0 139 0;
#X connect 189 0 140 0;
#X connect 190 0 141 0;
#X connect 191 0 142 0;
#X connect 192 0 143 0;
#X connect 193 0 144 0;
#X connect 194 0 79 0;
#X connect 194 1 80 0;
#X connect 194 2 81 0;
#X connect 194 3 82 0;
#X connect 194 4 83 0;
#X connect 194 5 84 0;
#X connect 194 6 85 0;
#X connect 194 7 86 0;
#X connect 194 8 87 0;
#X connect 194 9 88 0;
#X connect 194 10 89 0;
#X connect 194 11 90 0;
#X connect 195 0 194 0;
#X connect 196 0 92 0;
#X connect 197 0 208 0;
#X connect 198 0 209 0;
#X connect 199 0 210 0;
#X connect 200 0 211 0;
#X connect 201 0 212 0;
#X connect 202 0 213 0;
#X connect 203 0 214 0;
#X connect 204 0 215 0;
#X connect 205 0 217 0;
#X connect 206 0 218 0;
#X connect 207 0 216 0;
#X connect 208 0 248 0;
#X connect 209 0 250 0;
#X connect 210 0 252 0;
#X connect 211 0 254 0;
#X connect 212 0 256 0;
#X connect 213 0 258 0;
#X connect 214 0 260 0;
#X connect 215 0 262 0;
#X connect 216 0 264 0;
#X connect 217 0 266 0;
#X connect 218 0 268 0;
#X connect 219 0 231 0;
#X connect 220 0 232 0;
#X connect 221 0 233 0;
#X connect 222 0 234 0;
#X connect 223 0 235 0;
#X connect 224 0 236 0;
#X connect 225 0 237 0;
#X connect 226 0 238 0;
#X connect 227 0 239 0;
#X connect 228 0 240 0;
#X connect 229 0 241 0;
#X connect 230 0 242 0;
#X connect 243 0 244 0;
#X connect 245 0 246 1;
#X connect 246 0 282 0;
#X connect 247 0 248 1;
#X connect 248 0 283 0;
#X connect 249 0 250 1;
#X connect 250 0 284 0;
#X connect 251 0 252 1;
#X connect 252 0 285 0;
#X connect 253 0 254 1;
#X connect 254 0 286 0;
#X connect 255 0 256 1;
#X connect 256 0 287 0;
#X connect 257 0 258 1;
#X connect 258 0 288 0;
#X connect 259 0 260 1;
#X connect 260 0 289 0;
#X connect 261 0 262 1;
#X connect 262 0 290 0;
#X connect 263 0 264 1;
#X connect 264 0 291 0;
#X connect 265 0 266 1;
#X connect 266 0 292 0;
#X connect 267 0 268 1;
#X connect 268 0 293 0;
#X connect 269 0 245 0;
#X connect 270 0 247 0;
#X connect 271 0 249 0;
#X connect 272 0 251 0;
#X connect 273 0 253 0;
#X connect 274 0 255 0;
#X connect 275 0 257 0;
#X connect 276 0 259 0;
#X connect 277 0 261 0;
#X connect 278 0 263 0;
#X connect 279 0 265 0;
#X connect 280 0 267 0;
#X connect 281 0 269 0;
#X connect 281 1 270 0;
#X connect 281 2 271 0;
#X connect 281 3 272 0;
#X connect 281 4 273 0;
#X connect 281 5 274 0;
#X connect 281 6 275 0;
#X connect 281 7 276 0;
#X connect 281 8 277 0;
#X connect 281 9 278 0;
#X connect 281 10 279 0;
#X connect 281 11 280 0;
#X connect 282 0 66 0;
#X connect 282 1 243 0;
#X connect 283 0 64 0;
#X connect 283 1 243 1;
#X connect 284 0 65 0;
#X connect 284 1 243 2;
#X connect 285 0 62 0;
#X connect 285 1 243 3;
#X connect 286 0 63 0;
#X connect 286 1 243 4;
#X connect 287 0 60 0;
#X connect 287 1 243 5;
#X connect 288 0 61 0;
#X connect 288 1 243 6;
#X connect 289 0 58 0;
#X connect 289 1 243 7;
#X connect 290 0 59 0;
#X connect 290 1 243 8;
#X connect 291 0 56 0;
#X connect 291 1 243 9;
#X connect 292 0 57 0;
#X connect 292 1 243 10;
#X connect 293 0 55 0;
#X connect 293 1 243 11;
#X connect 294 0 281 0;
#X connect 295 0 67 0;
#X connect 296 0 295 0;
#X connect 296 1 297 0;
#X connect 296 2 298 0;
#X connect 296 3 299 0;
#X connect 296 4 300 0;
#X connect 296 5 301 0;
#X connect 296 6 302 0;
#X connect 296 7 303 0;
#X connect 296 8 304 0;
#X connect 296 9 305 0;
#X connect 296 10 306 0;
#X connect 296 11 307 0;
#X connect 297 0 68 0;
#X connect 298 0 69 0;
#X connect 299 0 70 0;
#X connect 300 0 71 0;
#X connect 301 0 72 0;
#X connect 302 0 73 0;
#X connect 303 0 74 0;
#X connect 304 0 75 0;
#X connect 305 0 76 0;
#X connect 306 0 77 0;
#X connect 307 0 78 0;
#X connect 308 0 296 0;
#X coords 0 -1 1 1 705 250 1 95 650;
