#N canvas -3 25 1920 1027 12;
#N canvas 329 161 625 417 vu 0;
#X obj 59 129 env~ 1024;
#X obj 161 111 abs~;
#X obj 161 213 snapshot~;
#X obj 161 256 rmstodb;
#X obj 161 21 inlet~;
#X obj 161 288 - 100;
#X obj 59 287 - 100;
#X obj 59 361 outlet;
#X obj 161 361 outlet;
#X text 344 307 Check the help file of env~ and slop~ for more details., f 31;
#X obj 239 89 expr 1000 / $f1;
#X floatatom 239 117 5 0 0 0 - - - 0;
#X obj 161 146 slop~ 0 0 0 0 1e+09;
#X obj 239 18 inlet;
#X floatatom 239 57 5 0 0 0 - - - 0;
#X text 359 89 convert to hz;
#X text 282 118 hz;
#X text 284 57 peak decay time in ms;
#X obj 59 171 t f b;
#X text 345 132 The env~ object is dedicated to RMS analysis. Its output is in dB (0-100 range \, pd style) but needs to be converted to dBFS (and we do that by simply subtracting 100)., f 31;
#X text 345 225 The slop~ object is used here for peak detection. We need to convert the output to dB with rmstodb and also subtract by 100 to convert it to dBFS., f 31;
#X connect 0 0 18 0;
#X connect 1 0 12 0;
#X connect 2 0 3 0;
#X connect 3 0 5 0;
#X connect 4 0 0 0;
#X connect 4 0 1 0;
#X connect 5 0 8 0;
#X connect 6 0 7 0;
#X connect 10 0 11 0;
#X connect 11 0 12 3;
#X connect 12 0 2 0;
#X connect 13 0 14 0;
#X connect 14 0 10 0;
#X connect 18 0 6 0;
#X connect 18 1 2 0;
#X restore 1269 599 pd vu;
#X obj 935 967 dac~ 1 2 3 4 5 6 7 8;
#N canvas 329 161 625 417 vu 0;
#X obj 59 129 env~ 1024;
#X obj 161 111 abs~;
#X obj 161 213 snapshot~;
#X obj 161 256 rmstodb;
#X obj 161 21 inlet~;
#X obj 161 288 - 100;
#X obj 59 287 - 100;
#X obj 59 361 outlet;
#X obj 161 361 outlet;
#X text 344 307 Check the help file of env~ and slop~ for more details., f 31;
#X obj 239 89 expr 1000 / $f1;
#X floatatom 239 117 5 0 0 0 - - - 0;
#X obj 161 146 slop~ 0 0 0 0 1e+09;
#X obj 239 18 inlet;
#X floatatom 239 57 5 0 0 0 - - - 0;
#X text 359 89 convert to hz;
#X text 282 118 hz;
#X text 284 57 peak decay time in ms;
#X obj 59 171 t f b;
#X text 345 132 The env~ object is dedicated to RMS analysis. Its output is in dB (0-100 range \, pd style) but needs to be converted to dBFS (and we do that by simply subtracting 100)., f 31;
#X text 345 225 The slop~ object is used here for peak detection. We need to convert the output to dB with rmstodb and also subtract by 100 to convert it to dBFS., f 31;
#X connect 0 0 18 0;
#X connect 1 0 12 0;
#X connect 2 0 3 0;
#X connect 3 0 5 0;
#X connect 4 0 0 0;
#X connect 4 0 1 0;
#X connect 5 0 8 0;
#X connect 6 0 7 0;
#X connect 10 0 11 0;
#X connect 11 0 12 3;
#X connect 12 0 2 0;
#X connect 13 0 14 0;
#X connect 14 0 10 0;
#X connect 18 0 6 0;
#X connect 18 1 2 0;
#X restore 1227 599 pd vu;
#N canvas 329 161 625 417 vu 0;
#X obj 59 129 env~ 1024;
#X obj 161 111 abs~;
#X obj 161 213 snapshot~;
#X obj 161 256 rmstodb;
#X obj 161 21 inlet~;
#X obj 161 288 - 100;
#X obj 59 287 - 100;
#X obj 59 361 outlet;
#X obj 161 361 outlet;
#X text 344 307 Check the help file of env~ and slop~ for more details., f 31;
#X obj 239 89 expr 1000 / $f1;
#X floatatom 239 117 5 0 0 0 - - - 0;
#X obj 161 146 slop~ 0 0 0 0 1e+09;
#X obj 239 18 inlet;
#X floatatom 239 57 5 0 0 0 - - - 0;
#X text 359 89 convert to hz;
#X text 282 118 hz;
#X text 284 57 peak decay time in ms;
#X obj 59 171 t f b;
#X text 345 132 The env~ object is dedicated to RMS analysis. Its output is in dB (0-100 range \, pd style) but needs to be converted to dBFS (and we do that by simply subtracting 100)., f 31;
#X text 345 225 The slop~ object is used here for peak detection. We need to convert the output to dB with rmstodb and also subtract by 100 to convert it to dBFS., f 31;
#X connect 0 0 18 0;
#X connect 1 0 12 0;
#X connect 2 0 3 0;
#X connect 3 0 5 0;
#X connect 4 0 0 0;
#X connect 4 0 1 0;
#X connect 5 0 8 0;
#X connect 6 0 7 0;
#X connect 10 0 11 0;
#X connect 11 0 12 3;
#X connect 12 0 2 0;
#X connect 13 0 14 0;
#X connect 14 0 10 0;
#X connect 18 0 6 0;
#X connect 18 1 2 0;
#X restore 1185 599 pd vu;
#X obj 1579 439 catch~ o10;
#N canvas 329 161 625 417 vu 0;
#X obj 59 129 env~ 1024;
#X obj 161 111 abs~;
#X obj 161 213 snapshot~;
#X obj 161 256 rmstodb;
#X obj 161 21 inlet~;
#X obj 161 288 - 100;
#X obj 59 287 - 100;
#X obj 59 361 outlet;
#X obj 161 361 outlet;
#X text 344 307 Check the help file of env~ and slop~ for more details., f 31;
#X obj 239 89 expr 1000 / $f1;
#X floatatom 239 117 5 0 0 0 - - - 0;
#X obj 161 146 slop~ 0 0 0 0 1e+09;
#X obj 239 18 inlet;
#X floatatom 239 57 5 0 0 0 - - - 0;
#X text 359 89 convert to hz;
#X text 282 118 hz;
#X text 284 57 peak decay time in ms;
#X obj 59 171 t f b;
#X text 345 132 The env~ object is dedicated to RMS analysis. Its output is in dB (0-100 range \, pd style) but needs to be converted to dBFS (and we do that by simply subtracting 100)., f 31;
#X text 345 225 The slop~ object is used here for peak detection. We need to convert the output to dB with rmstodb and also subtract by 100 to convert it to dBFS., f 31;
#X connect 0 0 18 0;
#X connect 1 0 12 0;
#X connect 2 0 3 0;
#X connect 3 0 5 0;
#X connect 4 0 0 0;
#X connect 4 0 1 0;
#X connect 5 0 8 0;
#X connect 6 0 7 0;
#X connect 10 0 11 0;
#X connect 11 0 12 3;
#X connect 12 0 2 0;
#X connect 13 0 14 0;
#X connect 14 0 10 0;
#X connect 18 0 6 0;
#X connect 18 1 2 0;
#X restore 1142 599 pd vu;
#N canvas 329 161 625 417 vu 0;
#X obj 59 129 env~ 1024;
#X obj 161 111 abs~;
#X obj 161 213 snapshot~;
#X obj 161 256 rmstodb;
#X obj 161 21 inlet~;
#X obj 161 288 - 100;
#X obj 59 287 - 100;
#X obj 59 361 outlet;
#X obj 161 361 outlet;
#X text 344 307 Check the help file of env~ and slop~ for more details., f 31;
#X obj 239 89 expr 1000 / $f1;
#X floatatom 239 117 5 0 0 0 - - - 0;
#X obj 161 146 slop~ 0 0 0 0 1e+09;
#X obj 239 18 inlet;
#X floatatom 239 57 5 0 0 0 - - - 0;
#X text 359 89 convert to hz;
#X text 282 118 hz;
#X text 284 57 peak decay time in ms;
#X obj 59 171 t f b;
#X text 345 132 The env~ object is dedicated to RMS analysis. Its output is in dB (0-100 range \, pd style) but needs to be converted to dBFS (and we do that by simply subtracting 100)., f 31;
#X text 345 225 The slop~ object is used here for peak detection. We need to convert the output to dB with rmstodb and also subtract by 100 to convert it to dBFS., f 31;
#X connect 0 0 18 0;
#X connect 1 0 12 0;
#X connect 2 0 3 0;
#X connect 3 0 5 0;
#X connect 4 0 0 0;
#X connect 4 0 1 0;
#X connect 5 0 8 0;
#X connect 6 0 7 0;
#X connect 10 0 11 0;
#X connect 11 0 12 3;
#X connect 12 0 2 0;
#X connect 13 0 14 0;
#X connect 14 0 10 0;
#X connect 18 0 6 0;
#X connect 18 1 2 0;
#X restore 1100 599 pd vu;
#X obj 1286 440 catch~ o8;
#N canvas 329 161 625 417 vu 0;
#X obj 59 129 env~ 1024;
#X obj 161 111 abs~;
#X obj 161 213 snapshot~;
#X obj 161 256 rmstodb;
#X obj 161 21 inlet~;
#X obj 161 288 - 100;
#X obj 59 287 - 100;
#X obj 59 361 outlet;
#X obj 161 361 outlet;
#X text 344 307 Check the help file of env~ and slop~ for more details., f 31;
#X obj 239 89 expr 1000 / $f1;
#X floatatom 239 117 5 0 0 0 - - - 0;
#X obj 161 146 slop~ 0 0 0 0 1e+09;
#X obj 239 18 inlet;
#X floatatom 239 57 5 0 0 0 - - - 0;
#X text 359 89 convert to hz;
#X text 282 118 hz;
#X text 284 57 peak decay time in ms;
#X obj 59 171 t f b;
#X text 345 132 The env~ object is dedicated to RMS analysis. Its output is in dB (0-100 range \, pd style) but needs to be converted to dBFS (and we do that by simply subtracting 100)., f 31;
#X text 345 225 The slop~ object is used here for peak detection. We need to convert the output to dB with rmstodb and also subtract by 100 to convert it to dBFS., f 31;
#X connect 0 0 18 0;
#X connect 1 0 12 0;
#X connect 2 0 3 0;
#X connect 3 0 5 0;
#X connect 4 0 0 0;
#X connect 4 0 1 0;
#X connect 5 0 8 0;
#X connect 6 0 7 0;
#X connect 10 0 11 0;
#X connect 11 0 12 3;
#X connect 12 0 2 0;
#X connect 13 0 14 0;
#X connect 14 0 10 0;
#X connect 18 0 6 0;
#X connect 18 1 2 0;
#X restore 1058 599 pd vu;
#N canvas 329 161 625 417 vu 0;
#X obj 59 129 env~ 1024;
#X obj 161 111 abs~;
#X obj 161 213 snapshot~;
#X obj 161 256 rmstodb;
#X obj 161 21 inlet~;
#X obj 161 288 - 100;
#X obj 59 287 - 100;
#X obj 59 361 outlet;
#X obj 161 361 outlet;
#X text 344 307 Check the help file of env~ and slop~ for more details., f 31;
#X obj 239 89 expr 1000 / $f1;
#X floatatom 239 117 5 0 0 0 - - - 0;
#X obj 161 146 slop~ 0 0 0 0 1e+09;
#X obj 239 18 inlet;
#X floatatom 239 57 5 0 0 0 - - - 0;
#X text 359 89 convert to hz;
#X text 282 118 hz;
#X text 284 57 peak decay time in ms;
#X obj 59 171 t f b;
#X text 345 132 The env~ object is dedicated to RMS analysis. Its output is in dB (0-100 range \, pd style) but needs to be converted to dBFS (and we do that by simply subtracting 100)., f 31;
#X text 345 225 The slop~ object is used here for peak detection. We need to convert the output to dB with rmstodb and also subtract by 100 to convert it to dBFS., f 31;
#X connect 0 0 18 0;
#X connect 1 0 12 0;
#X connect 2 0 3 0;
#X connect 3 0 5 0;
#X connect 4 0 0 0;
#X connect 4 0 1 0;
#X connect 5 0 8 0;
#X connect 6 0 7 0;
#X connect 10 0 11 0;
#X connect 11 0 12 3;
#X connect 12 0 2 0;
#X connect 13 0 14 0;
#X connect 14 0 10 0;
#X connect 18 0 6 0;
#X connect 18 1 2 0;
#X restore 1016 599 pd vu;
#N canvas 329 161 625 417 vu 0;
#X obj 59 129 env~ 1024;
#X obj 161 111 abs~;
#X obj 161 213 snapshot~;
#X obj 161 256 rmstodb;
#X obj 161 21 inlet~;
#X obj 161 288 - 100;
#X obj 59 287 - 100;
#X obj 59 361 outlet;
#X obj 161 361 outlet;
#X text 344 307 Check the help file of env~ and slop~ for more details., f 31;
#X obj 239 89 expr 1000 / $f1;
#X floatatom 239 117 5 0 0 0 - - - 0;
#X obj 161 146 slop~ 0 0 0 0 1e+09;
#X obj 239 18 inlet;
#X floatatom 239 57 5 0 0 0 - - - 0;
#X text 359 89 convert to hz;
#X text 282 118 hz;
#X text 284 57 peak decay time in ms;
#X obj 59 171 t f b;
#X text 345 132 The env~ object is dedicated to RMS analysis. Its output is in dB (0-100 range \, pd style) but needs to be converted to dBFS (and we do that by simply subtracting 100)., f 31;
#X text 345 225 The slop~ object is used here for peak detection. We need to convert the output to dB with rmstodb and also subtract by 100 to convert it to dBFS., f 31;
#X connect 0 0 18 0;
#X connect 1 0 12 0;
#X connect 2 0 3 0;
#X connect 3 0 5 0;
#X connect 4 0 0 0;
#X connect 4 0 1 0;
#X connect 5 0 8 0;
#X connect 6 0 7 0;
#X connect 10 0 11 0;
#X connect 11 0 12 3;
#X connect 12 0 2 0;
#X connect 13 0 14 0;
#X connect 14 0 10 0;
#X connect 18 0 6 0;
#X connect 18 1 2 0;
#X restore 974 599 pd vu;
#X obj 1356 440 catch~ o9;
#N canvas 329 161 625 417 vu 0;
#X obj 59 129 env~ 1024;
#X obj 161 111 abs~;
#X obj 161 213 snapshot~;
#X obj 161 256 rmstodb;
#X obj 161 21 inlet~;
#X obj 161 288 - 100;
#X obj 59 287 - 100;
#X obj 59 361 outlet;
#X obj 161 361 outlet;
#X text 344 307 Check the help file of env~ and slop~ for more details., f 31;
#X obj 239 89 expr 1000 / $f1;
#X floatatom 239 117 5 0 0 0 - - - 0;
#X obj 161 146 slop~ 0 0 0 0 1e+09;
#X obj 239 18 inlet;
#X floatatom 239 57 5 0 0 0 - - - 0;
#X text 359 89 convert to hz;
#X text 282 118 hz;
#X text 284 57 peak decay time in ms;
#X obj 59 171 t f b;
#X text 345 132 The env~ object is dedicated to RMS analysis. Its output is in dB (0-100 range \, pd style) but needs to be converted to dBFS (and we do that by simply subtracting 100)., f 31;
#X text 345 225 The slop~ object is used here for peak detection. We need to convert the output to dB with rmstodb and also subtract by 100 to convert it to dBFS., f 31;
#X connect 0 0 18 0;
#X connect 1 0 12 0;
#X connect 2 0 3 0;
#X connect 3 0 5 0;
#X connect 4 0 0 0;
#X connect 4 0 1 0;
#X connect 5 0 8 0;
#X connect 6 0 7 0;
#X connect 10 0 11 0;
#X connect 11 0 12 3;
#X connect 12 0 2 0;
#X connect 13 0 14 0;
#X connect 14 0 10 0;
#X connect 18 0 6 0;
#X connect 18 1 2 0;
#X restore 931 599 pd vu;
#N canvas 329 161 625 417 vu 0;
#X obj 59 129 env~ 1024;
#X obj 161 111 abs~;
#X obj 161 213 snapshot~;
#X obj 161 256 rmstodb;
#X obj 161 21 inlet~;
#X obj 161 288 - 100;
#X obj 59 287 - 100;
#X obj 59 361 outlet;
#X obj 161 361 outlet;
#X text 344 307 Check the help file of env~ and slop~ for more details., f 31;
#X obj 239 89 expr 1000 / $f1;
#X floatatom 239 117 5 0 0 0 - - - 0;
#X obj 161 146 slop~ 0 0 0 0 1e+09;
#X obj 239 18 inlet;
#X floatatom 239 57 5 0 0 0 - - - 0;
#X text 359 89 convert to hz;
#X text 282 118 hz;
#X text 284 57 peak decay time in ms;
#X obj 59 171 t f b;
#X text 345 132 The env~ object is dedicated to RMS analysis. Its output is in dB (0-100 range \, pd style) but needs to be converted to dBFS (and we do that by simply subtracting 100)., f 31;
#X text 345 225 The slop~ object is used here for peak detection. We need to convert the output to dB with rmstodb and also subtract by 100 to convert it to dBFS., f 31;
#X connect 0 0 18 0;
#X connect 1 0 12 0;
#X connect 2 0 3 0;
#X connect 3 0 5 0;
#X connect 4 0 0 0;
#X connect 4 0 1 0;
#X connect 5 0 8 0;
#X connect 6 0 7 0;
#X connect 10 0 11 0;
#X connect 11 0 12 3;
#X connect 12 0 2 0;
#X connect 13 0 14 0;
#X connect 14 0 10 0;
#X connect 18 0 6 0;
#X connect 18 1 2 0;
#X restore 888 599 pd vu;
#N canvas 329 161 625 417 vu 0;
#X obj 59 129 env~ 1024;
#X obj 161 111 abs~;
#X obj 161 213 snapshot~;
#X obj 161 256 rmstodb;
#X obj 161 21 inlet~;
#X obj 161 288 - 100;
#X obj 59 287 - 100;
#X obj 59 361 outlet;
#X obj 161 361 outlet;
#X text 344 307 Check the help file of env~ and slop~ for more details., f 31;
#X obj 239 89 expr 1000 / $f1;
#X floatatom 239 117 5 0 0 0 - - - 0;
#X obj 161 146 slop~ 0 0 0 0 1e+09;
#X obj 239 18 inlet;
#X floatatom 239 57 5 0 0 0 - - - 0;
#X text 359 89 convert to hz;
#X text 282 118 hz;
#X text 284 57 peak decay time in ms;
#X obj 59 171 t f b;
#X text 345 132 The env~ object is dedicated to RMS analysis. Its output is in dB (0-100 range \, pd style) but needs to be converted to dBFS (and we do that by simply subtracting 100)., f 31;
#X text 345 225 The slop~ object is used here for peak detection. We need to convert the output to dB with rmstodb and also subtract by 100 to convert it to dBFS., f 31;
#X connect 0 0 18 0;
#X connect 1 0 12 0;
#X connect 2 0 3 0;
#X connect 3 0 5 0;
#X connect 4 0 0 0;
#X connect 4 0 1 0;
#X connect 5 0 8 0;
#X connect 6 0 7 0;
#X connect 10 0 11 0;
#X connect 11 0 12 3;
#X connect 12 0 2 0;
#X connect 13 0 14 0;
#X connect 14 0 10 0;
#X connect 18 0 6 0;
#X connect 18 1 2 0;
#X restore 843 599 pd vu;
#N canvas 329 161 625 417 vu 0;
#X obj 59 129 env~ 1024;
#X obj 161 111 abs~;
#X obj 161 213 snapshot~;
#X obj 161 256 rmstodb;
#X obj 161 21 inlet~;
#X obj 161 288 - 100;
#X obj 59 287 - 100;
#X obj 59 361 outlet;
#X obj 161 361 outlet;
#X text 344 307 Check the help file of env~ and slop~ for more details., f 31;
#X obj 239 89 expr 1000 / $f1;
#X floatatom 239 117 5 0 0 0 - - - 0;
#X obj 161 146 slop~ 0 0 0 0 1e+09;
#X obj 239 18 inlet;
#X floatatom 239 57 5 0 0 0 - - - 0;
#X text 359 89 convert to hz;
#X text 282 118 hz;
#X text 284 57 peak decay time in ms;
#X obj 59 171 t f b;
#X text 345 132 The env~ object is dedicated to RMS analysis. Its output is in dB (0-100 range \, pd style) but needs to be converted to dBFS (and we do that by simply subtracting 100)., f 31;
#X text 345 225 The slop~ object is used here for peak detection. We need to convert the output to dB with rmstodb and also subtract by 100 to convert it to dBFS., f 31;
#X connect 0 0 18 0;
#X connect 1 0 12 0;
#X connect 2 0 3 0;
#X connect 3 0 5 0;
#X connect 4 0 0 0;
#X connect 4 0 1 0;
#X connect 5 0 8 0;
#X connect 6 0 7 0;
#X connect 10 0 11 0;
#X connect 11 0 12 3;
#X connect 12 0 2 0;
#X connect 13 0 14 0;
#X connect 14 0 10 0;
#X connect 18 0 6 0;
#X connect 18 1 2 0;
#X restore 798 600 pd vu;
#X obj 1009 440 catch~ o4;
#X obj 800 440 catch~ o1;
#X obj 869 440 catch~ o2;
#X obj 938 440 catch~ o3;
#X obj 796 573 *~;
#X obj 814 502 / 127;
#X msg 814 525 \$1 10;
#X obj 814 548 line~;
#X obj 864 573 *~;
#X obj 882 502 / 127;
#X msg 882 525 \$1 10;
#X obj 882 548 line~;
#X obj 932 572 *~;
#X obj 950 501 / 127;
#X msg 950 524 \$1 10;
#X obj 950 547 line~;
#X obj 1002 575 *~;
#X obj 1020 504 / 127;
#X msg 1020 527 \$1 10;
#X obj 1020 550 line~;
#X obj 1072 573 *~;
#X obj 1090 502 / 127;
#X msg 1090 525 \$1 10;
#X obj 1090 548 line~;
#X obj 1143 573 *~;
#X obj 1161 502 / 127;
#X msg 1161 525 \$1 10;
#X obj 1161 548 line~;
#X obj 1212 572 *~;
#X obj 1230 501 / 127;
#X msg 1230 524 \$1 10;
#X obj 1230 547 line~;
#X obj 1281 573 *~;
#X obj 1299 502 / 127;
#X msg 1299 525 \$1 10;
#X obj 1299 548 line~;
#X obj 1079 440 catch~ o5;
#X obj 1148 440 catch~ o6;
#X obj 1217 440 catch~ o7;
#X obj 1351 573 *~;
#X obj 1369 502 / 127;
#X msg 1369 525 \$1 10;
#X obj 1369 548 line~;
#X obj 1420 572 *~;
#X obj 1438 501 / 127;
#X msg 1438 524 \$1 10;
#X obj 1438 547 line~;
#X obj 1497 572 *~;
#X obj 1515 501 / 127;
#X msg 1515 524 \$1 10;
#X obj 1515 547 line~;
#X obj 1575 573 *~;
#X obj 1593 502 / 127;
#X msg 1593 525 \$1 10;
#X obj 1593 548 line~;
#X obj 1425 440 catch~ o10;
#X obj 1502 439 catch~ o11;
#X obj 819 385 r io-outvol1;
#X obj 888 359 r io-outvol2;
#X obj 955 390 r io-outvol3;
#X obj 1027 359 r io-outvol4;
#X obj 1096 386 r io-outvol5;
#X obj 1166 360 r io-outvol6;
#X obj 1232 387 r io-outvol7;
#X obj 1300 359 r io-outvol8;
#X obj 1370 392 r io-outvol9;
#X obj 1441 361 r io-outvol10;
#X obj 1520 386 r io-outvol12;
#X obj 1600 356 r io-outvol12;
#X msg 818 411 set \$1;
#X msg 887 410 set \$1;
#X msg 955 416 set \$1;
#X msg 1026 412 set \$1;
#X msg 1095 411 set \$1;
#X msg 1167 413 set \$1;
#X msg 1232 412 set \$1;
#X msg 1301 411 set \$1;
#X msg 1369 417 set \$1;
#X msg 1440 413 set \$1;
#X msg 1520 412 set \$1;
#X msg 1599 412 set \$1;
#X obj 938 312 s io-outvol2;
#X obj 842 313 s io-outvol1;
#X obj 1040 311 s io-outvol3;
#X obj 1135 313 s io-outvol4;
#X obj 1232 313 s io-outvol5;
#X obj 1334 312 s io-outvol6;
#X obj 1428 310 s io-outvol7;
#X obj 1525 310 s io-outvol8;
#X obj 1628 308 s io-outvol9;
#X obj 1728 309 s io-outvol10;
#X obj 1834 308 s io-outvol11;
#X obj 1936 307 s io-outvol12;
#X obj 447 643 cnv 19 350 76 empty empty empty 20 12 0 12 #e0e0e0 #404040 0;
#X obj 745 768 vu 20 120 empty o12 -1 -10 0 10 #404040 #000000 1 0;
#X obj 697 768 vu 20 120 empty o10 -1 -10 0 12 #535512 #000000 0 0;
#X obj 721 768 vu 20 120 empty o11 -1 -10 0 12 #535512 #000000 0 0;
#X obj 649 768 vu 20 120 empty o8 -1 -10 0 12 #535512 #000000 0 0;
#X obj 673 768 vu 20 120 empty o9 -1 -10 0 12 #535512 #000000 0 0;
#X obj 601 768 vu 20 120 empty o6 -1 -10 0 12 #535512 #000000 0 0;
#X obj 625 768 vu 20 120 empty o7 -1 -10 0 12 #535512 #000000 0 0;
#X obj 553 768 vu 20 120 empty o4 -1 -10 0 12 #535512 #000000 0 0;
#X obj 577 768 vu 20 120 empty o5 -1 -10 0 12 #535512 #000000 0 0;
#X obj 504 768 vu 20 120 empty o2 -1 -10 0 12 #535512 #000000 0 0;
#X obj 528 768 vu 20 120 empty o3 -1 -10 0 12 #535512 #000000 0 0;
#X obj 480 768 vu 20 120 empty o1 -1 -10 0 12 #535512 #000000 0 0;
#X obj 479 685 vsl 20 60 0 127 0 0 empty empty Vol 0 -9 0 12 #ffc7c6 #000000 #000000 0 1;
#X obj 503 685 vsl 20 60 0 127 0 0 empty empty empty 0 -9 0 12 #ffe3c6 #000000 #000000 0 1;
#X obj 528 685 vsl 20 60 0 127 0 0 empty empty empty 0 -9 0 12 #ffc7c6 #000000 #000000 0 1;
#X obj 552 685 vsl 20 60 0 127 0 0 empty empty empty 0 -9 0 12 #ffe3c6 #000000 #000000 0 1;
#X obj 576 685 vsl 20 60 0 127 0 0 empty empty empty 0 -9 0 12 #ffc7c6 #000000 #000000 0 1;
#X obj 600 685 vsl 20 60 0 127 0 0 empty empty empty 0 -9 0 12 #ffe3c6 #000000 #000000 0 1;
#X obj 624 685 vsl 20 60 0 127 0 0 empty empty empty 0 -9 0 12 #ffc7c6 #000000 #000000 0 1;
#X obj 649 685 vsl 20 60 0 127 0 0 empty empty empty 0 -9 0 12 #ffe3c6 #000000 #000000 0 1;
#X obj 674 685 vsl 20 60 0 127 0 0 empty empty empty 0 -9 0 12 #ffc7c6 #000000 #000000 0 1;
#X obj 697 685 vsl 20 60 0 127 0 0 empty empty empty 0 -9 0 12 #ffe3c6 #000000 #000000 0 1;
#X obj 721 685 vsl 20 60 0 127 0 0 empty empty empty 0 -9 0 12 #ffc7c6 #000000 #000000 0 1;
#X obj 746 685 vsl 20 60 0 127 0 0 empty empty empty 0 -9 0 12 #ffe3c6 #000000 #000000 0 1;
#X connect 0 0 110 0;
#X connect 0 1 110 1;
#X connect 2 0 112 0;
#X connect 2 1 112 1;
#X connect 3 0 111 0;
#X connect 3 1 111 1;
#X connect 4 0 67 0;
#X connect 5 0 114 0;
#X connect 5 1 114 1;
#X connect 6 0 113 0;
#X connect 6 1 113 1;
#X connect 7 0 48 0;
#X connect 8 0 116 0;
#X connect 8 1 116 1;
#X connect 9 0 115 0;
#X connect 9 1 115 1;
#X connect 10 0 118 0;
#X connect 10 1 118 1;
#X connect 11 0 55 0;
#X connect 12 0 117 0;
#X connect 12 1 117 1;
#X connect 13 0 120 0;
#X connect 13 1 120 1;
#X connect 14 0 119 0;
#X connect 14 1 119 1;
#X connect 15 0 121 0;
#X connect 15 1 121 1;
#X connect 16 0 32 0;
#X connect 17 0 20 0;
#X connect 18 0 24 0;
#X connect 19 0 28 0;
#X connect 20 0 15 0;
#X connect 21 0 22 0;
#X connect 22 0 23 0;
#X connect 23 0 20 1;
#X connect 24 0 14 0;
#X connect 25 0 26 0;
#X connect 26 0 27 0;
#X connect 27 0 24 1;
#X connect 28 0 13 0;
#X connect 29 0 30 0;
#X connect 30 0 31 0;
#X connect 31 0 28 1;
#X connect 32 0 12 0;
#X connect 33 0 34 0;
#X connect 34 0 35 0;
#X connect 35 0 32 1;
#X connect 36 0 10 0;
#X connect 37 0 38 0;
#X connect 38 0 39 0;
#X connect 39 0 36 1;
#X connect 40 0 9 0;
#X connect 41 0 42 0;
#X connect 42 0 43 0;
#X connect 43 0 40 1;
#X connect 44 0 8 0;
#X connect 45 0 46 0;
#X connect 46 0 47 0;
#X connect 47 0 44 1;
#X connect 48 0 6 0;
#X connect 49 0 50 0;
#X connect 50 0 51 0;
#X connect 51 0 48 1;
#X connect 52 0 36 0;
#X connect 53 0 40 0;
#X connect 54 0 44 0;
#X connect 55 0 5 0;
#X connect 56 0 57 0;
#X connect 57 0 58 0;
#X connect 58 0 55 1;
#X connect 59 0 3 0;
#X connect 60 0 61 0;
#X connect 61 0 62 0;
#X connect 62 0 59 1;
#X connect 63 0 2 0;
#X connect 64 0 65 0;
#X connect 65 0 66 0;
#X connect 66 0 63 1;
#X connect 67 0 0 0;
#X connect 68 0 69 0;
#X connect 69 0 70 0;
#X connect 70 0 67 1;
#X connect 71 0 59 0;
#X connect 72 0 63 0;
#X connect 73 0 85 0;
#X connect 74 0 86 0;
#X connect 75 0 87 0;
#X connect 76 0 88 0;
#X connect 77 0 89 0;
#X connect 78 0 90 0;
#X connect 79 0 91 0;
#X connect 80 0 92 0;
#X connect 81 0 93 0;
#X connect 82 0 94 0;
#X connect 83 0 95 0;
#X connect 84 0 96 0;
#X connect 85 0 122 0;
#X connect 86 0 123 0;
#X connect 87 0 124 0;
#X connect 88 0 125 0;
#X connect 89 0 126 0;
#X connect 90 0 127 0;
#X connect 91 0 128 0;
#X connect 92 0 129 0;
#X connect 93 0 130 0;
#X connect 94 0 131 0;
#X connect 95 0 132 0;
#X connect 96 0 133 0;
#X connect 122 0 98 0;
#X connect 123 0 97 0;
#X connect 124 0 99 0;
#X connect 125 0 100 0;
#X connect 126 0 101 0;
#X connect 127 0 102 0;
#X connect 128 0 103 0;
#X connect 129 0 104 0;
#X connect 130 0 105 0;
#X connect 131 0 106 0;
#X connect 132 0 107 0;
#X connect 133 0 108 0;
#X coords 0 -1 1 1 600 250 1 200 650;
