#N canvas 524 248 450 300 12;
#X obj 152 118 random;
#X obj 244 32 inlet;
#X obj 191 33 inlet;
#X obj 190 85 -;
#X obj 190 56 t b f;
#X obj 152 157 +;
#X obj 152 190 outlet;
#X obj 146 34 inlet;
#X connect 0 0 5 0;
#X connect 1 0 3 0;
#X connect 2 0 4 0;
#X connect 3 0 0 1;
#X connect 4 0 3 0;
#X connect 4 1 3 1;
#X connect 4 1 5 1;
#X connect 5 0 6 0;
#X connect 7 0 0 0;
