#N canvas 179 223 689 300 12;
#X obj 14 20 inlet;
#X obj 100 21 inlet;
#X obj 204 20 inlet;
#X text 142 19 in min;
#X text 247 20 in max;
#X text 352 19 out min;
#X text 458 18 out max;
#X text 57 20 val;
#X obj 100 73 \$1;
#X obj 13 99 expr ( ( ($f1 - $f2) / ($f3 - $f2) ) * ($f5 - $f4) ) + $f4;
#X obj 100 45 t b f;
#X obj 205 46 t b f;
#X obj 205 74 \$2;
#X obj 304 19 inlet;
#X obj 305 45 t b f;
#X obj 305 73 \$3;
#X obj 414 18 inlet;
#X obj 415 44 t b f;
#X obj 415 72 \$4;
#X obj 12 132 outlet;
#X obj 526 16 loadbang;
#X connect 0 0 9 0;
#X connect 1 0 10 0;
#X connect 2 0 11 0;
#X connect 8 0 9 1;
#X connect 9 0 19 0;
#X connect 10 0 8 0;
#X connect 10 1 8 1;
#X connect 11 0 12 0;
#X connect 11 1 12 1;
#X connect 12 0 9 2;
#X connect 13 0 14 0;
#X connect 14 0 15 0;
#X connect 14 1 15 1;
#X connect 15 0 9 3;
#X connect 16 0 17 0;
#X connect 17 0 18 0;
#X connect 17 1 18 1;
#X connect 18 0 9 4;
#X connect 20 0 18 0;
#X connect 20 0 15 0;
#X connect 20 0 12 0;
#X connect 20 0 8 0;
