#N canvas 1 25 1920 1027 12;
#X obj 52 91 until;
#X msg 52 117 1;
#X obj 52 143 + 0;
#X obj 51 170 f;
#X floatatom 50 195 5 0 0 0 - - - 0;
#X obj 53 35 t b 0, f 10;
#X obj 52 64 f;
#X obj 138 35 - 1;
#X obj 53 12 inlet;
#X obj 138 11 inlet;
#X obj 26 224 outlet;
#X obj 76 224 outlet;
#X connect 0 0 1 0;
#X connect 0 0 10 0;
#X connect 1 0 2 0;
#X connect 2 0 3 0;
#X connect 3 0 4 0;
#X connect 3 0 2 1;
#X connect 4 0 11 0;
#X connect 5 0 6 0;
#X connect 5 1 3 0;
#X connect 6 0 0 0;
#X connect 7 0 6 1;
#X connect 8 0 5 0;
#X connect 9 0 7 0;
