#N canvas 4 0 2560 1486 12;
#X obj 860 102 ctlin;
#X obj 851 180 list prepend;
#X listbox 851 206 12 0 0 0 - - - 0;
#X obj 851 132 swap;
#X obj 851 156 pack;
#X floatatom 328 118 5 0 127 0 - - - 0;
#X floatatom 328 147 5 0 127 0 - - - 0;
#X floatatom 328 205 5 0 127 0 - - - 0;
#X floatatom 328 175 5 0 127 0 - - - 0;
#X floatatom 328 234 5 0 127 0 - - - 0;
#X floatatom 328 292 5 0 127 0 - - - 0;
#X floatatom 328 263 5 0 127 0 - - - 0;
#X floatatom 328 321 5 0 127 0 - - - 0;
#X obj 851 267 route 70 71 72 73 74 75 76 77;
#X obj 1200 276 route 80 81 82 83 84 85 86 87;
#X text 768 271 Faders ctl;
#X text 1228 251 Encoders ctl;
#X obj 145 118 hsl 162 19 0 127 0 0 empty empty 1- -20 10 0 12 #000000 #00faff #2f004d 0 0;
#X obj 145 148 hsl 162 19 0 127 0 0 empty empty 2- -20 10 0 12 #000000 #00faff #2f004d 0 0;
#X obj 145 178 hsl 162 19 0 127 0 0 empty empty 3- -20 10 0 12 #000000 #00faff #2f004d 0 0;
#X obj 145 208 hsl 162 19 0 127 0 0 empty empty 4- -20 10 0 12 #000000 #00faff #2f004d 0 0;
#X obj 145 238 hsl 162 19 0 127 0 0 empty empty 5- -20 10 0 12 #000000 #00faff #2f004d 0 0;
#X obj 145 268 hsl 162 19 0 127 0 0 empty empty 6- -20 10 0 12 #000000 #00faff #2f004d 0 0;
#X obj 145 298 hsl 162 19 0 127 0 0 empty empty 7- -20 10 0 12 #000000 #00faff #2f004d 0 0;
#X obj 145 328 hsl 162 19 0 127 0 0 empty empty 8- -20 10 0 12 #000000 #00faff #2f004d 0 0;
#X obj 851 298 list prepend set;
#X obj 851 322 list trim;
#X obj 876 348 list prepend set;
#X obj 876 372 list trim;
#X obj 902 404 list prepend set;
#X obj 902 428 list trim;
#X obj 927 454 list prepend set;
#X obj 927 478 list trim;
#X obj 976 297 list prepend set;
#X obj 976 321 list trim;
#X obj 1001 347 list prepend set;
#X obj 1001 371 list trim;
#X obj 1027 403 list prepend set;
#X obj 1027 427 list trim;
#X obj 1052 453 list prepend set;
#X obj 1052 477 list trim;
#X text 141 96 FADERS;
#X text 320 92 ENCODERS;
#X obj 1201 318 list prepend set;
#X obj 1201 342 list trim;
#X obj 1226 368 list prepend set;
#X obj 1226 392 list trim;
#X obj 1252 424 list prepend set;
#X obj 1252 448 list trim;
#X obj 1277 474 list prepend set;
#X obj 1277 498 list trim;
#X obj 1326 317 list prepend set;
#X obj 1326 341 list trim;
#X obj 1351 367 list prepend set;
#X obj 1351 391 list trim;
#X obj 1377 423 list prepend set;
#X obj 1377 447 list trim;
#X obj 1402 473 list prepend set;
#X obj 1402 497 list trim;
#X obj 58 514 list append 70;
#X obj 76 538 list append 71;
#X obj 88 563 list append 72;
#X obj 106 587 list append 73;
#X obj 175 515 list append 74;
#X obj 193 539 list append 75;
#X obj 205 563 list append 76;
#X obj 223 588 list append 77;
#X obj 326 514 list append 80;
#X obj 344 538 list append 81;
#X obj 356 563 list append 82;
#X obj 374 587 list append 83;
#X obj 443 515 list append 84;
#X obj 461 539 list append 85;
#X obj 473 563 list append 86;
#X obj 491 588 list append 87;
#X obj 374 611 list trim;
#X obj 53 692 ctlout \$1;
#X obj 851 233 route \$1, f 30;
#X obj 853 624 outlet;
#X obj 889 653 outlet;
#X obj 912 622 outlet;
#X obj 948 651 outlet;
#X obj 974 621 outlet;
#X obj 1010 650 outlet;
#X obj 1033 619 outlet;
#X obj 1069 648 outlet;
#X text 865 680 FADERS OUTLETS;
#X obj 1204 625 outlet;
#X obj 1240 654 outlet;
#X obj 1263 623 outlet;
#X obj 1299 652 outlet;
#X obj 1325 622 outlet;
#X obj 1361 651 outlet;
#X obj 1384 620 outlet;
#X obj 1420 649 outlet;
#X text 1216 681 ENCODERS OUTLETS;
#X obj 395 13 r fader_\$1-1;
#X obj 401 42 r fader_\$1-2;
#X obj 413 67 r fader_\$1-3;
#X obj 419 96 r fader_\$1-4;
#X obj 499 14 r fader_\$1-5;
#X obj 505 43 r fader_\$1-6;
#X obj 517 68 r fader_\$1-7;
#X obj 523 97 r fader_\$1-8;
#X obj 629 39 r pot_\$1-2;
#X obj 623 10 r pot_\$1-1;
#X obj 641 64 r pot_\$1-3;
#X obj 647 93 r pot_\$1-4;
#X obj 708 11 r pot_\$1-5;
#X obj 714 40 r pot_\$1-6;
#X obj 726 65 r pot_\$1-7;
#X obj 732 94 r pot_\$1-8;
#X connect 0 0 3 0;
#X connect 0 1 3 1;
#X connect 0 2 1 1;
#X connect 1 0 2 0;
#X connect 2 0 77 0;
#X connect 3 0 4 0;
#X connect 3 1 4 1;
#X connect 4 0 1 0;
#X connect 5 0 67 0;
#X connect 5 0 87 0;
#X connect 6 0 68 0;
#X connect 6 0 88 0;
#X connect 7 0 70 0;
#X connect 7 0 90 0;
#X connect 8 0 69 0;
#X connect 8 0 89 0;
#X connect 9 0 71 0;
#X connect 9 0 91 0;
#X connect 10 0 73 0;
#X connect 10 0 93 0;
#X connect 11 0 72 0;
#X connect 11 0 92 0;
#X connect 12 0 74 0;
#X connect 12 0 94 0;
#X connect 13 0 25 0;
#X connect 13 0 78 0;
#X connect 13 1 27 0;
#X connect 13 1 79 0;
#X connect 13 2 29 0;
#X connect 13 2 80 0;
#X connect 13 3 31 0;
#X connect 13 3 81 0;
#X connect 13 4 33 0;
#X connect 13 4 82 0;
#X connect 13 5 35 0;
#X connect 13 5 83 0;
#X connect 13 6 37 0;
#X connect 13 6 84 0;
#X connect 13 7 39 0;
#X connect 13 7 85 0;
#X connect 13 8 14 0;
#X connect 14 0 43 0;
#X connect 14 0 87 0;
#X connect 14 1 45 0;
#X connect 14 1 88 0;
#X connect 14 2 47 0;
#X connect 14 2 89 0;
#X connect 14 3 49 0;
#X connect 14 3 90 0;
#X connect 14 4 51 0;
#X connect 14 4 91 0;
#X connect 14 5 53 0;
#X connect 14 5 92 0;
#X connect 14 6 55 0;
#X connect 14 6 93 0;
#X connect 14 7 57 0;
#X connect 14 7 94 0;
#X connect 17 0 59 0;
#X connect 17 0 78 0;
#X connect 18 0 60 0;
#X connect 18 0 79 0;
#X connect 19 0 61 0;
#X connect 19 0 80 0;
#X connect 20 0 62 0;
#X connect 20 0 81 0;
#X connect 21 0 63 0;
#X connect 21 0 82 0;
#X connect 22 0 64 0;
#X connect 22 0 83 0;
#X connect 23 0 65 0;
#X connect 23 0 84 0;
#X connect 24 0 66 0;
#X connect 24 0 85 0;
#X connect 25 0 26 0;
#X connect 26 0 17 0;
#X connect 27 0 28 0;
#X connect 28 0 18 0;
#X connect 29 0 30 0;
#X connect 30 0 19 0;
#X connect 31 0 32 0;
#X connect 32 0 20 0;
#X connect 33 0 34 0;
#X connect 34 0 21 0;
#X connect 35 0 36 0;
#X connect 36 0 22 0;
#X connect 37 0 38 0;
#X connect 38 0 23 0;
#X connect 39 0 40 0;
#X connect 40 0 24 0;
#X connect 43 0 44 0;
#X connect 44 0 5 0;
#X connect 45 0 46 0;
#X connect 46 0 6 0;
#X connect 47 0 48 0;
#X connect 48 0 8 0;
#X connect 49 0 50 0;
#X connect 50 0 7 0;
#X connect 51 0 52 0;
#X connect 52 0 9 0;
#X connect 53 0 54 0;
#X connect 54 0 11 0;
#X connect 55 0 56 0;
#X connect 56 0 10 0;
#X connect 57 0 58 0;
#X connect 58 0 12 0;
#X connect 59 0 76 0;
#X connect 60 0 76 0;
#X connect 61 0 76 0;
#X connect 62 0 76 0;
#X connect 63 0 76 0;
#X connect 64 0 76 0;
#X connect 65 0 76 0;
#X connect 66 0 76 0;
#X connect 67 0 76 0;
#X connect 68 0 76 0;
#X connect 69 0 76 0;
#X connect 70 0 75 0;
#X connect 71 0 76 0;
#X connect 72 0 76 0;
#X connect 73 0 76 0;
#X connect 74 0 76 0;
#X connect 75 0 76 0;
#X connect 77 0 13 0;
#X connect 96 0 17 0;
#X connect 97 0 18 0;
#X connect 98 0 19 0;
#X connect 99 0 20 0;
#X connect 100 0 21 0;
#X connect 101 0 22 0;
#X connect 102 0 23 0;
#X connect 103 0 24 0;
#X connect 104 0 6 0;
#X connect 105 0 5 0;
#X connect 106 0 8 0;
#X connect 107 0 7 0;
#X connect 108 0 9 0;
#X connect 109 0 11 0;
#X connect 110 0 10 0;
#X connect 111 0 12 0;
#X coords 0 -1 1 1 270 300 1 120 70;
