#N canvas 4 0 2560 1486 12;
#X obj 757 98 ctlin;
#X obj 748 176 list prepend;
#X listbox 748 202 12 0 0 0 - - - 0;
#X obj 748 128 swap;
#X obj 748 152 pack;
#X floatatom 328 118 5 0 127 0 - - - 0;
#X floatatom 328 147 5 0 127 0 - - - 0;
#X floatatom 328 205 5 0 127 0 - - - 0;
#X floatatom 328 175 5 0 127 0 - - - 0;
#X floatatom 328 234 5 0 127 0 - - - 0;
#X floatatom 328 292 5 0 127 0 - - - 0;
#X floatatom 328 263 5 0 127 0 - - - 0;
#X floatatom 328 321 5 0 127 0 - - - 0;
#X obj 748 263 route 70 71 72 73 74 75 76 77;
#X obj 1200 276 route 80 81 82 83 84 85 86 87;
#X text 665 267 Faders ctl;
#X text 1228 251 Encoders ctl;
#X obj 64 941 u0.LCD 0;
#A saved ciao0 1 1 1;
#X obj 263 942 u0.LCD 1;
#A saved symbol 0 0 0;
#X obj 456 944 u0.LCD 2;
#A saved symbol 0 0 0;
#X obj 653 942 u0.LCD 3;
#A saved symbol 0 0 0;
#X obj 64 1162 u0.LCD 4;
#A saved symbol 0 0 0;
#X obj 263 1163 u0.LCD 5;
#A saved symbol 0 0 0;
#X obj 456 1165 u0.LCD 6;
#A saved symbol 0 0 0;
#X obj 653 1163 u0.LCD 7;
#A saved symbol 0 0 0;
#X obj 245 1420 midiout \$1;
#X obj 145 118 hsl 162 19 0 127 0 0 empty empty 1- -20 10 0 12 #000000 #00faff #2f004d 0 0;
#X obj 145 148 hsl 162 19 0 127 0 0 empty empty 2- -20 10 0 12 #000000 #00faff #2f004d 0 0;
#X obj 145 178 hsl 162 19 0 127 0 0 empty empty 3- -20 10 0 12 #000000 #00faff #2f004d 0 0;
#X obj 145 208 hsl 162 19 0 127 0 0 empty empty 4- -20 10 0 12 #000000 #00faff #2f004d 0 0;
#X obj 145 238 hsl 162 19 0 127 0 0 empty empty 5- -20 10 0 12 #000000 #00faff #2f004d 0 0;
#X obj 145 268 hsl 162 19 0 127 0 0 empty empty 6- -20 10 0 12 #000000 #00faff #2f004d 0 0;
#X obj 145 298 hsl 162 19 0 127 0 0 empty empty 7- -20 10 0 12 #000000 #00faff #2f004d 0 0;
#X obj 145 328 hsl 162 19 0 127 0 0 empty empty 8- -20 10 0 12 #000000 #00faff #2f004d 0 0;
#X obj 748 294 list prepend set;
#X obj 748 318 list trim;
#X obj 773 344 list prepend set;
#X obj 773 368 list trim;
#X obj 799 400 list prepend set;
#X obj 799 424 list trim;
#X obj 824 450 list prepend set;
#X obj 824 474 list trim;
#X obj 873 293 list prepend set;
#X obj 873 317 list trim;
#X obj 898 343 list prepend set;
#X obj 898 367 list trim;
#X obj 924 399 list prepend set;
#X obj 924 423 list trim;
#X obj 949 449 list prepend set;
#X obj 949 473 list trim;
#X text 141 96 FADERS;
#X text 320 92 ENCODERS;
#X obj 1201 318 list prepend set;
#X obj 1201 342 list trim;
#X obj 1226 368 list prepend set;
#X obj 1226 392 list trim;
#X obj 1252 424 list prepend set;
#X obj 1252 448 list trim;
#X obj 1277 474 list prepend set;
#X obj 1277 498 list trim;
#X obj 1326 317 list prepend set;
#X obj 1326 341 list trim;
#X obj 1351 367 list prepend set;
#X obj 1351 391 list trim;
#X obj 1377 423 list prepend set;
#X obj 1377 447 list trim;
#X obj 1402 473 list prepend set;
#X obj 1402 497 list trim;
#X obj 58 514 list append 70;
#X obj 76 538 list append 71;
#X obj 88 563 list append 72;
#X obj 106 587 list append 73;
#X obj 175 515 list append 74;
#X obj 193 539 list append 75;
#X obj 205 563 list append 76;
#X obj 223 588 list append 77;
#X obj 326 514 list append 80;
#X obj 344 538 list append 81;
#X obj 356 563 list append 82;
#X obj 374 587 list append 83;
#X obj 443 515 list append 84;
#X obj 461 539 list append 85;
#X obj 473 563 list append 86;
#X obj 491 588 list append 87;
#X obj 374 611 list trim;
#X obj 53 692 ctlout \$1;
#X obj 748 229 route \$1, f 30;
#X obj 750 620 outlet;
#X obj 786 649 outlet;
#X obj 809 618 outlet;
#X obj 845 647 outlet;
#X obj 871 617 outlet;
#X obj 907 646 outlet;
#X obj 930 615 outlet;
#X obj 966 644 outlet;
#X text 762 676 FADERS OUTLETS;
#X obj 1204 625 outlet;
#X obj 1240 654 outlet;
#X obj 1263 623 outlet;
#X obj 1299 652 outlet;
#X obj 1325 622 outlet;
#X obj 1361 651 outlet;
#X obj 1384 620 outlet;
#X obj 1420 649 outlet;
#X text 1216 681 ENCODERS OUTLETS;
#X obj 444 38 r fader_\$1-1;
#X obj 450 67 r fader_\$1-2;
#X obj 462 92 r fader_\$1-3;
#X obj 468 121 r fader_\$1-4;
#X obj 548 39 r fader_\$1-5;
#X obj 554 68 r fader_\$1-6;
#X obj 566 93 r fader_\$1-7;
#X obj 572 122 r fader_\$1-8;
#X connect 0 0 3 0;
#X connect 0 1 3 1;
#X connect 0 2 1 1;
#X connect 1 0 2 0;
#X connect 2 0 86 0;
#X connect 3 0 4 0;
#X connect 3 1 4 1;
#X connect 4 0 1 0;
#X connect 5 0 76 0;
#X connect 5 0 96 0;
#X connect 6 0 77 0;
#X connect 6 0 97 0;
#X connect 7 0 79 0;
#X connect 7 0 99 0;
#X connect 8 0 78 0;
#X connect 8 0 98 0;
#X connect 9 0 80 0;
#X connect 9 0 100 0;
#X connect 10 0 82 0;
#X connect 10 0 102 0;
#X connect 11 0 81 0;
#X connect 11 0 101 0;
#X connect 12 0 83 0;
#X connect 12 0 103 0;
#X connect 13 0 34 0;
#X connect 13 0 87 0;
#X connect 13 1 36 0;
#X connect 13 1 88 0;
#X connect 13 2 38 0;
#X connect 13 2 89 0;
#X connect 13 3 40 0;
#X connect 13 3 90 0;
#X connect 13 4 42 0;
#X connect 13 4 91 0;
#X connect 13 5 44 0;
#X connect 13 5 92 0;
#X connect 13 6 46 0;
#X connect 13 6 93 0;
#X connect 13 7 48 0;
#X connect 13 7 94 0;
#X connect 13 8 14 0;
#X connect 14 0 52 0;
#X connect 14 0 96 0;
#X connect 14 1 54 0;
#X connect 14 1 97 0;
#X connect 14 2 56 0;
#X connect 14 2 98 0;
#X connect 14 3 58 0;
#X connect 14 3 99 0;
#X connect 14 4 60 0;
#X connect 14 4 100 0;
#X connect 14 5 62 0;
#X connect 14 5 101 0;
#X connect 14 6 64 0;
#X connect 14 6 102 0;
#X connect 14 7 66 0;
#X connect 14 7 103 0;
#X connect 17 0 25 0;
#X connect 18 0 25 0;
#X connect 19 0 25 0;
#X connect 20 0 25 0;
#X connect 21 0 25 0;
#X connect 22 0 25 0;
#X connect 23 0 25 0;
#X connect 24 0 25 0;
#X connect 26 0 68 0;
#X connect 26 0 87 0;
#X connect 27 0 69 0;
#X connect 27 0 88 0;
#X connect 28 0 70 0;
#X connect 28 0 89 0;
#X connect 29 0 71 0;
#X connect 29 0 90 0;
#X connect 30 0 72 0;
#X connect 30 0 91 0;
#X connect 31 0 73 0;
#X connect 31 0 92 0;
#X connect 32 0 74 0;
#X connect 32 0 93 0;
#X connect 33 0 75 0;
#X connect 33 0 94 0;
#X connect 34 0 35 0;
#X connect 35 0 26 0;
#X connect 36 0 37 0;
#X connect 37 0 27 0;
#X connect 38 0 39 0;
#X connect 39 0 28 0;
#X connect 40 0 41 0;
#X connect 41 0 29 0;
#X connect 42 0 43 0;
#X connect 43 0 30 0;
#X connect 44 0 45 0;
#X connect 45 0 31 0;
#X connect 46 0 47 0;
#X connect 47 0 32 0;
#X connect 48 0 49 0;
#X connect 49 0 33 0;
#X connect 52 0 53 0;
#X connect 53 0 5 0;
#X connect 54 0 55 0;
#X connect 55 0 6 0;
#X connect 56 0 57 0;
#X connect 57 0 8 0;
#X connect 58 0 59 0;
#X connect 59 0 7 0;
#X connect 60 0 61 0;
#X connect 61 0 9 0;
#X connect 62 0 63 0;
#X connect 63 0 11 0;
#X connect 64 0 65 0;
#X connect 65 0 10 0;
#X connect 66 0 67 0;
#X connect 67 0 12 0;
#X connect 68 0 85 0;
#X connect 69 0 85 0;
#X connect 70 0 85 0;
#X connect 71 0 85 0;
#X connect 72 0 85 0;
#X connect 73 0 85 0;
#X connect 74 0 85 0;
#X connect 75 0 85 0;
#X connect 76 0 85 0;
#X connect 77 0 85 0;
#X connect 78 0 85 0;
#X connect 79 0 84 0;
#X connect 80 0 85 0;
#X connect 81 0 85 0;
#X connect 82 0 85 0;
#X connect 83 0 85 0;
#X connect 84 0 85 0;
#X connect 86 0 13 0;
#X connect 105 0 26 0;
#X connect 106 0 27 0;
#X connect 107 0 28 0;
#X connect 108 0 29 0;
#X connect 109 0 30 0;
#X connect 110 0 31 0;
#X connect 111 0 32 0;
#X connect 112 0 33 0;
#X coords 0 -1 1 1 270 300 1 120 70;
