#N canvas 0 0 1278 1083 12;
#X listbox 174 673 55 0 0 0 - - - 0;
#X obj 167 613 list append 247;
#X obj 167 589 list prepend 240 0 32 50 21 76;
#X text 278 553 LCD number;
#X text 388 590 Sysex start;
#X text 279 615 Sysex stop;
#X obj 165 375 list fromsymbol;
#X listbox 113 67 16 0 0 0 - - - 0;
#X obj 140 736 until;
#X obj 153 819 list store;
#X obj 174 703 t b b l;
#X obj 140 761 f;
#X obj 178 762 + 1;
#X msg 197 736 0, f 2;
#X msg 140 792 get \$1 1;
#X text 422 525 cc: bits 0-2: backlight color (black \, red \, green \, yellow \, blue \, magenta \, cyan \, white) cc: bit 4: invert upper half of LCD cc: bit 5: invert lower half of LCD;
#X text 276 525 CC----------------->;
#X obj 409 420 array define -k -yrange 0 255 \$0_text_01 14;
#A 0 95 70 114 111 110 116 95 49 45 50 0 0 0 0;
#X obj 188 427 array set \$0_text_01;
#X obj 165 455 array get \$0_text_01;
#X obj 166 528 list prepend 1;
#X obj 165 399 t b l b;
#X msg 343 420 const 0;
#X obj 114 92 vradio 19 1 0 8 empty empty empty 0 -10 0 12 #fcfcfc #000000 #000000 0;
#X floatatom 295 276 5 0 0 0 - - - 0;
#X text 136 92 Black;
#X text 136 112 Red;
#X text 136 132 Green;
#X text 136 152 Yellow;
#X text 136 172 Blue;
#X text 136 192 Magenta;
#X text 136 212 Cyan;
#X text 136 232 White;
#X obj 190 110 tgl 19 0 empty empty empty 0 -10 0 12 #fcfcfc #000000 #000000 0 1;
#X obj 397 249 * 16;
#X obj 192 158 tgl 19 0 empty empty empty 0 -10 0 12 #fcfcfc #000000 #000000 0 1;
#X obj 439 249 * 32;
#X obj 295 299 + 0;
#X obj 295 323 + 0;
#X obj 397 273 t b f;
#X obj 439 273 t b f;
#X floatatom 295 347 5 0 0 0 - - - 0;
#X text 188 90 Invert Up;
#X text 188 139 Invert Down;
#X obj 166 552 list prepend \$1;
#X obj 153 847 outlet;
#X obj 420 37 savestate;
#X obj 515 153 pack s f f f;
#X obj 420 61 unpack s f f f;
#X obj 113 4 loadbang;
#X obj 113 28 del 500;
#X connect 0 0 10 0;
#X connect 1 0 0 0;
#X connect 2 0 1 0;
#X connect 6 0 21 0;
#X connect 7 0 6 0;
#X connect 7 0 47 0;
#X connect 8 0 11 0;
#X connect 9 0 45 0;
#X connect 9 1 8 1;
#X connect 10 0 8 0;
#X connect 10 1 13 0;
#X connect 10 2 9 1;
#X connect 11 0 12 0;
#X connect 11 0 14 0;
#X connect 12 0 11 1;
#X connect 13 0 11 1;
#X connect 14 0 9 0;
#X connect 19 0 20 0;
#X connect 20 0 44 0;
#X connect 21 0 19 0;
#X connect 21 1 18 0;
#X connect 21 2 22 0;
#X connect 22 0 17 0;
#X connect 23 0 24 0;
#X connect 23 0 47 1;
#X connect 24 0 37 0;
#X connect 33 0 34 0;
#X connect 33 0 47 2;
#X connect 34 0 39 0;
#X connect 35 0 36 0;
#X connect 35 0 47 3;
#X connect 36 0 40 0;
#X connect 37 0 38 0;
#X connect 38 0 41 0;
#X connect 39 0 24 0;
#X connect 39 1 37 1;
#X connect 40 0 24 0;
#X connect 40 1 38 1;
#X connect 41 0 20 1;
#X connect 44 0 2 0;
#X connect 46 0 48 0;
#X connect 46 1 47 0;
#X connect 47 0 46 0;
#X connect 48 0 7 0;
#X connect 48 1 23 0;
#X connect 48 2 33 0;
#X connect 48 3 35 0;
#X connect 49 0 50 0;
#X connect 50 0 7 0;
#X coords 0 -1 1 1 180 200 1 100 50;
