#N canvas 1171 254 450 300 12;
#X obj 57 101 list trim;
#X obj 57 49 inlet;
#X obj 57 153 outlet~;
#X obj 166 50 inlet;
#X obj 57 77 list append 1000;
#X obj 57 129 line 0;
#X connect 0 0 5 0;
#X connect 1 0 4 0;
#X connect 3 0 4 1;
#X connect 4 0 0 0;
#X connect 5 0 2 0;
